<svg width="290" height="290" viewBox="0 0 290 290" fill="none" xmlns="http://www.w3.org/2000/svg">
<g filter="url(#filter0_bd_207_530)">
<mask id="path-1-inside-1_207_530" fill="white">
<path fill-rule="evenodd" clip-rule="evenodd" d="M27.3934 124.025C21.5355 129.883 21.5355 139.381 27.3934 145.239L134.025 251.871C139.883 257.728 149.381 257.728 155.239 251.871L261.871 145.239C267.728 139.381 267.728 129.883 261.871 124.025L155.239 17.3934C149.381 11.5355 139.883 11.5355 134.025 17.3934L27.3934 124.025ZM164.243 101.037L144.758 89.7868L125.272 101.037L105.787 112.286V157.287L125.272 168.536L144.758 179.787L164.243 168.536L183.728 157.287V112.288L164.243 101.037Z"/>
</mask>
<path fill-rule="evenodd" clip-rule="evenodd" d="M27.3934 124.025C21.5355 129.883 21.5355 139.381 27.3934 145.239L134.025 251.871C139.883 257.728 149.381 257.728 155.239 251.871L261.871 145.239C267.728 139.381 267.728 129.883 261.871 124.025L155.239 17.3934C149.381 11.5355 139.883 11.5355 134.025 17.3934L27.3934 124.025ZM164.243 101.037L144.758 89.7868L125.272 101.037L105.787 112.286V157.287L125.272 168.536L144.758 179.787L164.243 168.536L183.728 157.287V112.288L164.243 101.037Z" fill="url(#paint0_linear_207_530)" shape-rendering="crispEdges"/>
<path d="M27.3934 145.239L26.6863 145.946H26.6863L27.3934 145.239ZM27.3934 124.025L28.1005 124.733H28.1005L27.3934 124.025ZM134.025 251.871L134.733 251.163L134.025 251.871ZM155.239 251.871L154.531 251.163L155.239 251.871ZM261.871 145.239L261.163 144.531L261.871 145.239ZM261.871 124.025L261.163 124.732L261.871 124.025ZM155.239 17.3934L155.946 16.6863V16.6863L155.239 17.3934ZM134.025 17.3934L133.318 16.6863V16.6863L134.025 17.3934ZM144.758 89.7868L145.258 88.9208L144.758 88.6321L144.258 88.9208L144.758 89.7868ZM164.243 101.037L163.743 101.903L164.243 101.037ZM125.272 101.037L125.772 101.903L125.772 101.903L125.272 101.037ZM105.787 112.286L105.287 111.42L104.787 111.709V112.286H105.787ZM105.787 157.287H104.787V157.865L105.287 158.153L105.787 157.287ZM125.272 168.536L125.772 167.67L125.772 167.67L125.272 168.536ZM144.758 179.787L144.258 180.653L144.758 180.941L145.258 180.653L144.758 179.787ZM164.243 168.536L163.743 167.67L163.743 167.67L164.243 168.536ZM183.728 157.287L184.228 158.153L184.728 157.865V157.287H183.728ZM183.728 112.288H184.728V111.711L184.228 111.422L183.728 112.288ZM28.1005 144.532C22.6332 139.064 22.6332 130.2 28.1005 124.733L26.6863 123.318C20.4379 129.567 20.4379 139.697 26.6863 145.946L28.1005 144.532ZM134.733 251.163L28.1005 144.532L26.6863 145.946L133.318 252.578L134.733 251.163ZM154.531 251.163C149.064 256.631 140.2 256.631 134.733 251.163L133.318 252.578C139.567 258.826 149.697 258.826 155.946 252.578L154.531 251.163ZM261.163 144.531L154.531 251.163L155.946 252.578L262.578 145.946L261.163 144.531ZM261.163 124.732C266.631 130.2 266.631 139.064 261.163 144.531L262.578 145.946C268.826 139.697 268.826 129.567 262.578 123.318L261.163 124.732ZM154.531 18.1005L261.163 124.732L262.578 123.318L155.946 16.6863L154.531 18.1005ZM134.732 18.1005C140.2 12.6332 149.064 12.6332 154.531 18.1005L155.946 16.6863C149.697 10.4379 139.567 10.4379 133.318 16.6863L134.732 18.1005ZM28.1005 124.733L134.732 18.1005L133.318 16.6863L26.6863 123.318L28.1005 124.733ZM144.258 90.6528L163.743 101.903L164.743 100.171L145.258 88.9208L144.258 90.6528ZM125.772 101.903L145.258 90.6528L144.258 88.9208L124.772 100.171L125.772 101.903ZM106.287 113.152L125.772 101.903L124.772 100.171L105.287 111.42L106.287 113.152ZM106.787 157.287V112.286H104.787V157.287H106.787ZM125.772 167.67L106.287 156.421L105.287 158.153L124.772 169.402L125.772 167.67ZM145.258 178.921L125.772 167.67L124.772 169.402L144.258 180.653L145.258 178.921ZM163.743 167.67L144.258 178.921L145.258 180.653L164.743 169.402L163.743 167.67ZM183.228 156.421L163.743 167.67L164.743 169.402L184.228 158.153L183.228 156.421ZM182.728 112.288V157.287H184.728V112.288H182.728ZM163.743 101.903L183.228 113.154L184.228 111.422L164.743 100.171L163.743 101.903Z" fill="url(#paint1_linear_207_530)" mask="url(#path-1-inside-1_207_530)"/>
</g>
<g filter="url(#filter1_d_207_530)">
<mask id="mask0_207_530" style="mask-type:alpha" maskUnits="userSpaceOnUse" x="115" y="100" width="60" height="70">
<path fill-rule="evenodd" clip-rule="evenodd" d="M159.661 108.75L144.774 100L129.887 108.75L115 117.5V152.5L129.887 161.25L144.774 170L159.661 161.25L174.548 152.5V117.501L159.661 108.75Z" fill="white"/>
</mask>
<g mask="url(#mask0_207_530)">
<path fill-rule="evenodd" clip-rule="evenodd" d="M159.661 108.75L144.774 100L129.887 108.75L115 117.5V152.5L129.887 161.25L144.774 170L159.661 161.25L174.548 152.5V117.501L159.661 108.75Z" fill="#F85E11"/>
<path fill-rule="evenodd" clip-rule="evenodd" d="M138.357 134.792V142.111L133.959 146.629V134.791C133.981 131.745 135.173 128.83 137.278 126.684C139.382 124.537 142.227 123.333 145.192 123.333C148.157 123.333 151.002 124.537 153.107 126.684C155.211 128.83 156.404 131.745 156.426 134.791V144.37C156.431 144.67 156.377 144.967 156.269 145.246C156.161 145.524 156 145.778 155.795 145.992C155.59 146.205 155.346 146.375 155.077 146.491C154.808 146.607 154.519 146.667 154.227 146.667C153.935 146.667 153.646 146.607 153.377 146.491C153.108 146.375 152.864 146.205 152.659 145.992C152.455 145.778 152.293 145.524 152.185 145.246C152.076 144.967 152.024 144.67 152.028 144.37V134.791C152.011 132.94 151.284 131.17 150.003 129.867C148.723 128.564 146.994 127.833 145.192 127.833C143.391 127.833 141.661 128.564 140.381 129.867C139.101 131.17 138.373 132.941 138.357 134.792Z" fill="white"/>
<path d="M148.542 137.917C148.542 139.527 147.236 140.833 145.626 140.833C144.015 140.833 142.709 139.527 142.709 137.917C142.709 136.306 144.015 135 145.626 135C147.236 135 148.542 136.306 148.542 137.917Z" fill="white"/>
</g>
</g>
<defs>
<filter id="filter0_bd_207_530" x="-11" y="-21" width="311.264" height="311.264" filterUnits="userSpaceOnUse" color-interpolation-filters="sRGB">
<feFlood flood-opacity="0" result="BackgroundImageFix"/>
<feGaussianBlur in="BackgroundImage" stdDeviation="17"/>
<feComposite in2="SourceAlpha" operator="in" result="effect1_backgroundBlur_207_530"/>
<feColorMatrix in="SourceAlpha" type="matrix" values="0 0 0 0 0 0 0 0 0 0 0 0 0 0 0 0 0 0 127 0" result="hardAlpha"/>
<feMorphology radius="1" operator="erode" in="SourceAlpha" result="effect2_dropShadow_207_530"/>
<feOffset dy="10"/>
<feGaussianBlur stdDeviation="12"/>
<feComposite in2="hardAlpha" operator="out"/>
<feColorMatrix type="matrix" values="0 0 0 0 0 0 0 0 0 0 0 0 0 0 0 0 0 0 0.2 0"/>
<feBlend mode="normal" in2="effect1_backgroundBlur_207_530" result="effect2_dropShadow_207_530"/>
<feBlend mode="normal" in="SourceGraphic" in2="effect2_dropShadow_207_530" result="shape"/>
</filter>
<filter id="filter1_d_207_530" x="109" y="99" width="83.5469" height="94" filterUnits="userSpaceOnUse" color-interpolation-filters="sRGB">
<feFlood flood-opacity="0" result="BackgroundImageFix"/>
<feColorMatrix in="SourceAlpha" type="matrix" values="0 0 0 0 0 0 0 0 0 0 0 0 0 0 0 0 0 0 127 0" result="hardAlpha"/>
<feOffset dx="6" dy="11"/>
<feGaussianBlur stdDeviation="6"/>
<feComposite in2="hardAlpha" operator="out"/>
<feColorMatrix type="matrix" values="0 0 0 0 0 0 0 0 0 0 0 0 0 0 0 0 0 0 0.45 0"/>
<feBlend mode="normal" in2="BackgroundImageFix" result="effect1_dropShadow_207_530"/>
<feBlend mode="normal" in="SourceGraphic" in2="effect1_dropShadow_207_530" result="shape"/>
</filter>
<linearGradient id="paint0_linear_207_530" x1="19.519" y1="135.309" x2="149.007" y2="50.2698" gradientUnits="userSpaceOnUse">
<stop stop-color="white" stop-opacity="0.1"/>
<stop offset="1" stop-color="white" stop-opacity="0.16"/>
</linearGradient>
<linearGradient id="paint1_linear_207_530" x1="23.9121" y1="127.507" x2="184.37" y2="12.8054" gradientUnits="userSpaceOnUse">
<stop stop-color="white" stop-opacity="0.5"/>
<stop offset="0.442708" stop-color="white" stop-opacity="0"/>
<stop offset="0.635417" stop-color="white" stop-opacity="0"/>
<stop offset="1" stop-color="white" stop-opacity="0.5"/>
</linearGradient>
</defs>
</svg>
