<svg width="290" height="290" viewBox="0 0 290 290" fill="none" xmlns="http://www.w3.org/2000/svg">
<g filter="url(#filter0_bd_207_544)">
<mask id="path-1-inside-1_207_544" fill="white">
<path fill-rule="evenodd" clip-rule="evenodd" d="M27.3934 124.025C21.5355 129.883 21.5355 139.381 27.3934 145.239L134.025 251.871C139.883 257.728 149.381 257.728 155.239 251.871L261.871 145.239C267.728 139.381 267.728 129.883 261.871 124.025L155.239 17.3934C149.381 11.5355 139.883 11.5355 134.025 17.3934L27.3934 124.025ZM164.243 101.037L144.758 89.7868L125.272 101.037L105.787 112.286V157.287L125.272 168.536L144.758 179.787L164.243 168.536L183.728 157.287V112.288L164.243 101.037Z"/>
</mask>
<path fill-rule="evenodd" clip-rule="evenodd" d="M27.3934 124.025C21.5355 129.883 21.5355 139.381 27.3934 145.239L134.025 251.871C139.883 257.728 149.381 257.728 155.239 251.871L261.871 145.239C267.728 139.381 267.728 129.883 261.871 124.025L155.239 17.3934C149.381 11.5355 139.883 11.5355 134.025 17.3934L27.3934 124.025ZM164.243 101.037L144.758 89.7868L125.272 101.037L105.787 112.286V157.287L125.272 168.536L144.758 179.787L164.243 168.536L183.728 157.287V112.288L164.243 101.037Z" fill="url(#paint0_linear_207_544)" shape-rendering="crispEdges"/>
<path d="M27.3934 145.239L26.6863 145.946H26.6863L27.3934 145.239ZM27.3934 124.025L28.1005 124.733H28.1005L27.3934 124.025ZM134.025 251.871L134.733 251.163L134.025 251.871ZM155.239 251.871L154.531 251.163L155.239 251.871ZM261.871 145.239L261.163 144.531L261.871 145.239ZM261.871 124.025L261.163 124.732L261.871 124.025ZM155.239 17.3934L155.946 16.6863V16.6863L155.239 17.3934ZM134.025 17.3934L133.318 16.6863V16.6863L134.025 17.3934ZM144.758 89.7868L145.258 88.9208L144.758 88.6321L144.258 88.9208L144.758 89.7868ZM164.243 101.037L163.743 101.903L164.243 101.037ZM125.272 101.037L125.772 101.903L125.772 101.903L125.272 101.037ZM105.787 112.286L105.287 111.42L104.787 111.709V112.286H105.787ZM105.787 157.287H104.787V157.865L105.287 158.153L105.787 157.287ZM125.272 168.536L125.772 167.67L125.772 167.67L125.272 168.536ZM144.758 179.787L144.258 180.653L144.758 180.941L145.258 180.653L144.758 179.787ZM164.243 168.536L163.743 167.67L163.743 167.67L164.243 168.536ZM183.728 157.287L184.228 158.153L184.728 157.865V157.287H183.728ZM183.728 112.288H184.728V111.711L184.228 111.422L183.728 112.288ZM28.1005 144.532C22.6332 139.064 22.6332 130.2 28.1005 124.733L26.6863 123.318C20.4379 129.567 20.4379 139.697 26.6863 145.946L28.1005 144.532ZM134.733 251.163L28.1005 144.532L26.6863 145.946L133.318 252.578L134.733 251.163ZM154.531 251.163C149.064 256.631 140.2 256.631 134.733 251.163L133.318 252.578C139.567 258.826 149.697 258.826 155.946 252.578L154.531 251.163ZM261.163 144.531L154.531 251.163L155.946 252.578L262.578 145.946L261.163 144.531ZM261.163 124.732C266.631 130.2 266.631 139.064 261.163 144.531L262.578 145.946C268.826 139.697 268.826 129.567 262.578 123.318L261.163 124.732ZM154.531 18.1005L261.163 124.732L262.578 123.318L155.946 16.6863L154.531 18.1005ZM134.732 18.1005C140.2 12.6332 149.064 12.6332 154.531 18.1005L155.946 16.6863C149.697 10.4379 139.567 10.4379 133.318 16.6863L134.732 18.1005ZM28.1005 124.733L134.732 18.1005L133.318 16.6863L26.6863 123.318L28.1005 124.733ZM144.258 90.6528L163.743 101.903L164.743 100.171L145.258 88.9208L144.258 90.6528ZM125.772 101.903L145.258 90.6528L144.258 88.9208L124.772 100.171L125.772 101.903ZM106.287 113.152L125.772 101.903L124.772 100.171L105.287 111.42L106.287 113.152ZM106.787 157.287V112.286H104.787V157.287H106.787ZM125.772 167.67L106.287 156.421L105.287 158.153L124.772 169.402L125.772 167.67ZM145.258 178.921L125.772 167.67L124.772 169.402L144.258 180.653L145.258 178.921ZM163.743 167.67L144.258 178.921L145.258 180.653L164.743 169.402L163.743 167.67ZM183.228 156.421L163.743 167.67L164.743 169.402L184.228 158.153L183.228 156.421ZM182.728 112.288V157.287H184.728V112.288H182.728ZM163.743 101.903L183.228 113.154L184.228 111.422L164.743 100.171L163.743 101.903Z" fill="url(#paint1_linear_207_544)" mask="url(#path-1-inside-1_207_544)"/>
</g>
<g filter="url(#filter1_d_207_544)">
<mask id="mask0_207_544" style="mask-type:alpha" maskUnits="userSpaceOnUse" x="115" y="100" width="60" height="70">
<path fill-rule="evenodd" clip-rule="evenodd" d="M159.661 108.75L144.774 100L129.887 108.75L115 117.5V152.5L129.887 161.25L144.774 170L159.661 161.25L174.548 152.5V117.501L159.661 108.75Z" fill="white"/>
</mask>
<g mask="url(#mask0_207_544)">
<path fill-rule="evenodd" clip-rule="evenodd" d="M159.661 108.75L144.774 100L129.887 108.75L115 117.5V152.5L129.887 161.25L144.774 170L159.661 161.25L174.548 152.5V117.501L159.661 108.75Z" fill="#F85E11"/>
<path fill-rule="evenodd" clip-rule="evenodd" d="M145.823 141.945L138.487 141.945L133.958 146.475L145.824 146.475C148.875 146.448 151.791 145.216 153.939 143.049C156.086 140.882 157.291 137.955 157.291 134.904C157.291 131.853 156.086 128.926 153.939 126.759C151.791 124.592 148.875 123.361 145.824 123.333L136.222 123.333C135.63 123.345 135.065 123.59 134.65 124.013C134.235 124.436 134.003 125.006 134.003 125.598C134.003 126.191 134.235 126.76 134.65 127.184C135.065 127.607 135.63 127.852 136.222 127.864L139.049 127.864L139.049 139.514C139.051 140.114 139.29 140.689 139.715 141.114C140.139 141.538 140.714 141.777 141.314 141.779C141.914 141.777 142.489 141.538 142.913 141.114C143.338 140.689 143.577 140.114 143.579 139.514L143.579 127.864L145.823 127.864C146.755 127.853 147.679 128.027 148.543 128.376C149.407 128.725 150.192 129.242 150.855 129.896C151.517 130.551 152.043 131.331 152.402 132.191C152.761 133.05 152.946 133.973 152.946 134.904C152.946 135.836 152.761 136.758 152.402 137.618C152.043 138.477 151.517 139.257 150.855 139.912C150.192 140.567 149.407 141.083 148.543 141.432C147.679 141.781 146.755 141.956 145.823 141.945Z" fill="white"/>
</g>
</g>
<defs>
<filter id="filter0_bd_207_544" x="-11" y="-21" width="311.264" height="311.264" filterUnits="userSpaceOnUse" color-interpolation-filters="sRGB">
<feFlood flood-opacity="0" result="BackgroundImageFix"/>
<feGaussianBlur in="BackgroundImage" stdDeviation="17"/>
<feComposite in2="SourceAlpha" operator="in" result="effect1_backgroundBlur_207_544"/>
<feColorMatrix in="SourceAlpha" type="matrix" values="0 0 0 0 0 0 0 0 0 0 0 0 0 0 0 0 0 0 127 0" result="hardAlpha"/>
<feMorphology radius="1" operator="erode" in="SourceAlpha" result="effect2_dropShadow_207_544"/>
<feOffset dy="10"/>
<feGaussianBlur stdDeviation="12"/>
<feComposite in2="hardAlpha" operator="out"/>
<feColorMatrix type="matrix" values="0 0 0 0 0 0 0 0 0 0 0 0 0 0 0 0 0 0 0.2 0"/>
<feBlend mode="normal" in2="effect1_backgroundBlur_207_544" result="effect2_dropShadow_207_544"/>
<feBlend mode="normal" in="SourceGraphic" in2="effect2_dropShadow_207_544" result="shape"/>
</filter>
<filter id="filter1_d_207_544" x="109" y="99" width="83.5469" height="94" filterUnits="userSpaceOnUse" color-interpolation-filters="sRGB">
<feFlood flood-opacity="0" result="BackgroundImageFix"/>
<feColorMatrix in="SourceAlpha" type="matrix" values="0 0 0 0 0 0 0 0 0 0 0 0 0 0 0 0 0 0 127 0" result="hardAlpha"/>
<feOffset dx="6" dy="11"/>
<feGaussianBlur stdDeviation="6"/>
<feComposite in2="hardAlpha" operator="out"/>
<feColorMatrix type="matrix" values="0 0 0 0 0 0 0 0 0 0 0 0 0 0 0 0 0 0 0.45 0"/>
<feBlend mode="normal" in2="BackgroundImageFix" result="effect1_dropShadow_207_544"/>
<feBlend mode="normal" in="SourceGraphic" in2="effect1_dropShadow_207_544" result="shape"/>
</filter>
<linearGradient id="paint0_linear_207_544" x1="19.519" y1="135.309" x2="149.007" y2="50.2698" gradientUnits="userSpaceOnUse">
<stop stop-color="white" stop-opacity="0.1"/>
<stop offset="1" stop-color="white" stop-opacity="0.16"/>
</linearGradient>
<linearGradient id="paint1_linear_207_544" x1="23.9121" y1="127.507" x2="184.37" y2="12.8054" gradientUnits="userSpaceOnUse">
<stop stop-color="white" stop-opacity="0.5"/>
<stop offset="0.442708" stop-color="white" stop-opacity="0"/>
<stop offset="0.635417" stop-color="white" stop-opacity="0"/>
<stop offset="1" stop-color="white" stop-opacity="0.5"/>
</linearGradient>
</defs>
</svg>
