<svg width="39" height="46" viewBox="0 0 39 46" fill="none" xmlns="http://www.w3.org/2000/svg">
<g clip-path="url(#clip0_339_348)">
<mask id="mask0_339_348" style="mask-type:alpha" maskUnits="userSpaceOnUse" x="0" y="0" width="40" height="46">
<path fill-rule="evenodd" clip-rule="evenodd" d="M29.3487 5.75029L19.5661 0L9.78264 5.75029L0 11.4998V34.5002L9.78264 40.2497L19.5661 46L29.3487 40.2497L39.1314 34.5002V11.5006L29.3487 5.75029Z" fill="white"/>
</mask>
<g mask="url(#mask0_339_348)">
<path fill-rule="evenodd" clip-rule="evenodd" d="M29.3487 5.75029L19.5661 0L9.78264 5.75029L0 11.4998V34.5002L9.78264 40.2497L19.5661 46L29.3487 40.2497L39.1314 34.5002V11.5006L29.3487 5.75029Z" fill="#F85E11"/>
<path fill-rule="evenodd" clip-rule="evenodd" d="M15.3483 22.8637V27.6732L12.4585 30.6426V22.8633C12.4728 20.8612 13.2565 18.9459 14.6394 17.5354C16.0222 16.1249 17.892 15.3337 19.8405 15.3337C21.7889 15.3337 23.6584 16.1249 25.0412 17.5354C26.424 18.9459 27.2081 20.8612 27.2225 22.8633V29.1577C27.2256 29.3547 27.1905 29.5503 27.1193 29.7333C27.0481 29.9163 26.9423 30.0829 26.8079 30.2234C26.6734 30.3639 26.5129 30.4756 26.336 30.5518C26.1591 30.628 25.9692 30.667 25.7774 30.667C25.5856 30.667 25.3956 30.628 25.2187 30.5518C25.0418 30.4756 24.8818 30.3639 24.7473 30.2234C24.6128 30.0829 24.5066 29.9163 24.4354 29.7333C24.3642 29.5503 24.3295 29.3547 24.3327 29.1577V22.8633C24.3215 21.6466 23.8432 20.4838 23.002 19.6275C22.1608 18.7712 21.0246 18.2906 19.8405 18.2906C18.6564 18.2906 17.5198 18.7712 16.6786 19.6275C15.8373 20.4838 15.3595 21.647 15.3483 22.8637Z" fill="white"/>
<path d="M22.0418 24.9167C22.0418 25.9752 21.1837 26.8333 20.1252 26.8333C19.0666 26.8333 18.2085 25.9752 18.2085 24.9167C18.2085 23.8581 19.0666 23 20.1252 23C21.1837 23 22.0418 23.8581 22.0418 24.9167Z" fill="white"/>
</g>
</g>
<defs>
<clipPath id="clip0_339_348">
<rect width="39.0002" height="46" fill="white"/>
</clipPath>
</defs>
</svg>
