<svg width="39" height="46" viewBox="0 0 39 46" fill="none" xmlns="http://www.w3.org/2000/svg">
<g clip-path="url(#clip0_339_357)">
<mask id="mask0_339_357" style="mask-type:alpha" maskUnits="userSpaceOnUse" x="0" y="0" width="40" height="46">
<path fill-rule="evenodd" clip-rule="evenodd" d="M29.3487 5.75029L19.5661 0L9.78264 5.75029L0 11.4998V34.5002L9.78264 40.2497L19.5661 46L29.3487 40.2497L39.1314 34.5002V11.5006L29.3487 5.75029Z" fill="white"/>
</mask>
<g mask="url(#mask0_339_357)">
<path fill-rule="evenodd" clip-rule="evenodd" d="M29.3487 5.75029L19.5661 0L9.78264 5.75029L0 11.4998V34.5002L9.78264 40.2497L19.5661 46L29.3487 40.2497L39.1314 34.5002V11.5006L29.3487 5.75029Z" fill="#F85E11"/>
<path fill-rule="evenodd" clip-rule="evenodd" d="M20.2556 27.5639L15.4346 27.5639L12.4582 30.541L20.2563 30.541C22.261 30.5229 24.1775 29.7137 25.5886 28.2897C26.9998 26.8657 27.7915 24.9421 27.7915 22.9373C27.7915 20.9325 26.9998 19.0089 25.5886 17.5849C24.1775 16.1609 22.261 15.3516 20.2563 15.3335L13.9464 15.3335C13.5569 15.3415 13.186 15.5019 12.9134 15.7802C12.6407 16.0585 12.488 16.4325 12.488 16.8221C12.488 17.2117 12.6407 17.5856 12.9134 17.8639C13.186 18.1422 13.5569 18.3027 13.9464 18.3106L15.804 18.3106L15.804 25.9668C15.8052 26.3611 15.9624 26.7389 16.2412 27.0178C16.5201 27.2966 16.8979 27.4539 17.2923 27.4551C17.6866 27.4539 18.0645 27.2966 18.3433 27.0178C18.6222 26.7389 18.7793 26.3611 18.7805 25.9668L18.7805 18.3106L20.2556 18.3106C20.8677 18.3035 21.4752 18.4181 22.0427 18.6474C22.6103 18.8767 23.1267 19.2161 23.5621 19.6464C23.9974 20.0768 24.343 20.5893 24.5789 21.1541C24.8148 21.719 24.9363 22.3251 24.9363 22.9373C24.9363 23.5494 24.8148 24.1555 24.5789 24.7204C24.343 25.2852 23.9974 25.7978 23.5621 26.2281C23.1267 26.6584 22.6103 26.9978 22.0427 27.2271C21.4752 27.4565 20.8677 27.571 20.2556 27.5639Z" fill="white"/>
</g>
</g>
<defs>
<clipPath id="clip0_339_357">
<rect width="39.0002" height="46" fill="white"/>
</clipPath>
</defs>
</svg>
