<svg width="39" height="46" viewBox="0 0 39 46" fill="none" xmlns="http://www.w3.org/2000/svg">
<path fill-rule="evenodd" clip-rule="evenodd" d="M19.5004 0L29.2502 5.75029L39 11.5006V34.5002L29.2502 40.2497L19.5004 46L9.74981 40.2497L0 34.5002V11.4998L9.74981 5.75029L19.5004 0Z" fill="#F85E11"/>
<path fill-rule="evenodd" clip-rule="evenodd" d="M14.7589 23.1018V18.0554L11.709 14.9399V23.1018C11.709 25.2125 12.5298 27.2367 13.991 28.7292C15.4521 30.2217 17.4338 31.0602 19.5002 31.0602C21.5666 31.0602 23.5484 30.2217 25.0095 28.7292C26.4707 27.2367 27.2915 25.2125 27.2915 23.1018V16.4949C27.2826 16.0879 27.1179 15.7005 26.8329 15.4159C26.5479 15.1312 26.1652 14.9718 25.7666 14.9718C25.3679 14.9718 24.9851 15.1312 24.7001 15.4159C24.4151 15.7005 24.2505 16.0879 24.2416 16.4949V23.1018C24.2416 24.3862 23.742 25.6181 22.8528 26.5263C21.9636 27.4346 20.7577 27.9448 19.5002 27.9448C18.2427 27.9448 17.0368 27.4346 16.1476 26.5263C15.2584 25.6181 14.7589 24.3862 14.7589 23.1018Z" fill="white"/>
</svg>
