<svg width="1920" height="662" viewBox="0 0 1920 662" fill="none" xmlns="http://www.w3.org/2000/svg">
<mask id="mask0_544_953" style="mask-type:alpha" maskUnits="userSpaceOnUse" x="0" y="0" width="1920" height="662">
<rect width="1920" height="662" fill="#C4C4C4"/>
</mask>
<g mask="url(#mask0_544_953)">
<g opacity="0.23">
<path opacity="0.3" d="M1936.21 378.647L1740.92 265.765V491.53L1936.21 378.647Z" fill="white"/>
<path opacity="0.3" d="M1740.92 265.765L1936.21 378.647V152.882L1740.92 265.765Z" fill="white"/>
<path opacity="0.4" d="M1545.63 378.647L1740.92 491.529V265.765L1545.63 378.647Z" fill="white"/>
<path opacity="0.4" d="M1740.92 265.765L1545.63 152.882V378.647L1740.92 265.765Z" fill="white"/>
<path opacity="0.5" d="M1350.34 491.53L1545.63 604.412V378.647L1350.34 491.53Z" fill="white"/>
<path opacity="0.5" d="M1740.92 491.529L1545.63 378.647V604.412L1740.92 491.529Z" fill="white"/>
<path opacity="0.6" d="M1155.04 378.647L959.753 265.765V491.53L1155.04 378.647Z" fill="white"/>
<path opacity="0.6" d="M959.753 265.765L1155.04 378.647V152.882L959.753 265.765Z" fill="white"/>
<path opacity="0.5" d="M1740.92 491.53L1936.21 604.412V378.647L1740.92 491.53Z" fill="white"/>
<path opacity="0.8" d="M959.753 491.53L1155.04 604.412V378.647L959.753 491.53Z" fill="white"/>
<path opacity="0.8" d="M1350.34 491.529L1155.05 378.647V604.412L1350.34 491.529Z" fill="white"/>
<path opacity="0.7" d="M1350.34 265.765L1545.63 378.647V152.882L1350.34 265.765Z" fill="white"/>
<path opacity="0.2" d="M1350.34 265.765L1155.05 152.882V378.647L1350.34 265.765Z" fill="white"/>
<path opacity="0.4" d="M1155.05 152.882L1350.34 265.765V40L1155.05 152.882Z" fill="white"/>
<path opacity="0.4" d="M1545.63 152.882L1350.34 40V265.765L1545.63 152.882Z" fill="white"/>
<path opacity="0.2" d="M1155.05 378.647L1350.34 491.529V265.765L1155.05 378.647Z" fill="white"/>
<path opacity="0.7" d="M1545.63 378.647L1350.34 265.765V491.53L1545.63 378.647Z" fill="white"/>
</g>
<g opacity="0.23">
<path opacity="0.4" d="M764.461 378.647L959.754 491.529V265.765L764.461 378.647Z" fill="white"/>
<path opacity="0.3" d="M764.461 378.647L569.168 265.765V491.53L764.461 378.647Z" fill="white"/>
<path opacity="0.3" d="M569.168 265.765L764.461 378.647V152.882L569.168 265.765Z" fill="white"/>
<path opacity="0.4" d="M959.754 265.765L764.461 152.882V378.647L959.754 265.765Z" fill="white"/>
<path opacity="0.4" d="M373.877 378.647L569.17 491.529V265.765L373.877 378.647Z" fill="white"/>
<path opacity="0.4" d="M569.17 265.765L373.877 152.882V378.647L569.17 265.765Z" fill="white"/>
<path opacity="0.5" d="M178.585 491.53L373.877 604.412V378.647L178.585 491.53Z" fill="white"/>
<path opacity="0.5" d="M569.17 491.529L373.877 378.647V604.412L569.17 491.529Z" fill="white"/>
<path opacity="0.5" d="M569.168 491.53L764.461 604.412V378.647L569.168 491.53Z" fill="white"/>
<path opacity="0.5" d="M959.754 491.529L764.461 378.647V604.412L959.754 491.529Z" fill="white"/>
<path opacity="0.8" d="M178.584 491.529L-16.7085 378.647V604.412L178.584 491.529Z" fill="white"/>
<path opacity="0.7" d="M178.585 265.765L373.877 378.647V152.882L178.585 265.765Z" fill="white"/>
<path opacity="0.2" d="M178.584 265.765L-16.7085 152.882V378.647L178.584 265.765Z" fill="white"/>
<path opacity="0.4" d="M-16.7085 152.882L178.584 265.765V40L-16.7085 152.882Z" fill="white"/>
<path opacity="0.4" d="M373.877 152.882L178.585 40V265.765L373.877 152.882Z" fill="white"/>
<path opacity="0.2" d="M-16.7085 378.647L178.584 491.529V265.765L-16.7085 378.647Z" fill="white"/>
<path opacity="0.7" d="M373.877 378.647L178.585 265.765V491.53L373.877 378.647Z" fill="white"/>
</g>
</g>
</svg>
