<svg width="70" height="70" viewBox="0 0 70 70" fill="none" xmlns="http://www.w3.org/2000/svg">
<g filter="url(#filter0_bd_207_682)">
<mask id="path-1-inside-1_207_682" fill="white">
<path fill-rule="evenodd" clip-rule="evenodd" d="M46.6673 24.9999C46.6673 31.4399 41.429 36.6666 35.0007 36.6666L34.6743 36.6621C28.385 36.4891 23.334 31.3308 23.334 24.9999C23.334 18.5716 28.5607 13.3333 35.0007 13.3333C41.429 13.3333 46.6673 18.5716 46.6673 24.9999ZM32.6907 20.3333C32.3523 20.6833 32.3523 21.2316 32.7023 21.5699V21.5699C34.6012 23.4624 34.6012 26.5375 32.7023 28.4299V28.4299C32.3523 28.7683 32.3523 29.3283 32.6907 29.6666C33.0407 30.0166 33.589 30.0166 33.9273 29.6666L37.999 25.6183C38.1623 25.4549 38.2557 25.2333 38.2557 24.9999C38.2557 24.7666 38.1623 24.5449 37.999 24.3816L33.9273 20.3333C33.764 20.1583 33.5423 20.0766 33.3207 20.0766C33.0873 20.0766 32.8657 20.1583 32.6907 20.3333Z"/>
</mask>
<path fill-rule="evenodd" clip-rule="evenodd" d="M46.6673 24.9999C46.6673 31.4399 41.429 36.6666 35.0007 36.6666L34.6743 36.6621C28.385 36.4891 23.334 31.3308 23.334 24.9999C23.334 18.5716 28.5607 13.3333 35.0007 13.3333C41.429 13.3333 46.6673 18.5716 46.6673 24.9999ZM32.6907 20.3333C32.3523 20.6833 32.3523 21.2316 32.7023 21.5699V21.5699C34.6012 23.4624 34.6012 26.5375 32.7023 28.4299V28.4299C32.3523 28.7683 32.3523 29.3283 32.6907 29.6666C33.0407 30.0166 33.589 30.0166 33.9273 29.6666L37.999 25.6183C38.1623 25.4549 38.2557 25.2333 38.2557 24.9999C38.2557 24.7666 38.1623 24.5449 37.999 24.3816L33.9273 20.3333C33.764 20.1583 33.5423 20.0766 33.3207 20.0766C33.0873 20.0766 32.8657 20.1583 32.6907 20.3333Z" fill="url(#paint0_linear_207_682)" shape-rendering="crispEdges"/>
<path d="M35.0007 36.6666L34.9869 37.6666H35.0007V36.6666ZM34.6743 36.6621L34.6468 37.6618L34.6605 37.662L34.6743 36.6621ZM32.6907 20.3333L31.9835 19.6261L31.9776 19.6321L31.9717 19.6382L32.6907 20.3333ZM33.9273 29.6666L33.2222 28.9574L33.2152 28.9644L33.2083 28.9716L33.9273 29.6666ZM37.999 25.6183L38.7041 26.3274L38.7061 26.3254L37.999 25.6183ZM37.999 24.3816L38.7061 23.6745L38.7041 23.6724L37.999 24.3816ZM33.9273 20.3333L33.1963 21.0156L33.209 21.0292L33.2222 21.0424L33.9273 20.3333ZM35.0007 37.6666C41.9806 37.6666 47.6673 31.9929 47.6673 24.9999H45.6673C45.6673 30.887 40.8773 35.6666 35.0007 35.6666V37.6666ZM34.6605 37.662L34.9869 37.6665L35.0144 35.6667L34.688 35.6622L34.6605 37.662ZM22.334 24.9999C22.334 31.8739 27.8177 37.4738 34.6468 37.6617L34.7018 35.6625C28.9523 35.5043 24.334 30.7876 24.334 24.9999H22.334ZM35.0007 12.3333C28.0077 12.3333 22.334 18.02 22.334 24.9999H24.334C24.334 19.1232 29.1136 14.3333 35.0007 14.3333V12.3333ZM47.6673 24.9999C47.6673 18.0193 41.9813 12.3333 35.0007 12.3333V14.3333C40.8767 14.3333 45.6673 19.1239 45.6673 24.9999H47.6673ZM33.3973 20.8509C33.4221 20.8749 33.4381 20.9129 33.4383 20.9494C33.4386 20.9842 33.4248 21.0126 33.4096 21.0283L31.9717 19.6382C31.2632 20.3711 31.2462 21.5531 32.0073 22.2889L33.3973 20.8509ZM33.3978 28.9595C33.4271 28.9888 33.4385 29.0254 33.4383 29.0547C33.4381 29.0853 33.4253 29.1219 33.3973 29.1489L32.0073 27.7109C31.2527 28.4403 31.2527 29.6428 31.9835 30.3737L33.3978 28.9595ZM33.2083 28.9716C33.2321 28.947 33.272 28.9291 33.3134 28.9291C33.3541 28.9291 33.3842 28.946 33.3978 28.9595L31.9835 30.3737C32.7173 31.1075 33.9084 31.125 34.6463 30.3616L33.2083 28.9716ZM37.2939 24.9091L33.2222 28.9574L34.6324 30.3757L38.7041 26.3274L37.2939 24.9091ZM37.2557 24.9999C37.2557 24.965 37.2698 24.9332 37.2919 24.9111L38.7061 26.3254C39.0548 25.9766 39.2557 25.5015 39.2557 24.9999H37.2557ZM37.2919 25.0887C37.2698 25.0666 37.2557 25.0348 37.2557 24.9999H39.2557C39.2557 24.4984 39.0548 24.0232 38.7061 23.6745L37.2919 25.0887ZM33.2222 21.0424L37.2939 25.0907L38.7041 23.6724L34.6324 19.6241L33.2222 21.0424ZM33.3207 21.0766C33.3094 21.0766 33.2911 21.0746 33.2677 21.065C33.2429 21.0549 33.2172 21.038 33.1963 21.0156L34.6584 19.6509C34.2845 19.2503 33.7865 19.0766 33.3207 19.0766V21.0766ZM33.3978 21.0404C33.3891 21.049 33.3734 21.0605 33.353 21.0686C33.3437 21.0723 33.3358 21.0744 33.3298 21.0755C33.3269 21.076 33.3246 21.0763 33.323 21.0764C33.3222 21.0765 33.3216 21.0765 33.3213 21.0766C33.3211 21.0766 33.3209 21.0766 33.3208 21.0766C33.3207 21.0766 33.3207 21.0766 33.3207 21.0766V19.0766C32.8435 19.0766 32.3607 19.249 31.9835 19.6261L33.3978 21.0404ZM31.9964 22.2782C33.5032 23.7799 33.5032 26.22 31.9964 27.7216L33.4082 29.1382C35.6992 26.855 35.6992 23.1449 33.4082 20.8616L31.9964 22.2782Z" fill="url(#paint1_linear_207_682)" mask="url(#path-1-inside-1_207_682)"/>
</g>
<defs>
<filter id="filter0_bd_207_682" x="-10.666" y="-20.6667" width="91.334" height="91.3333" filterUnits="userSpaceOnUse" color-interpolation-filters="sRGB">
<feFlood flood-opacity="0" result="BackgroundImageFix"/>
<feGaussianBlur in="BackgroundImage" stdDeviation="17"/>
<feComposite in2="SourceAlpha" operator="in" result="effect1_backgroundBlur_207_682"/>
<feColorMatrix in="SourceAlpha" type="matrix" values="0 0 0 0 0 0 0 0 0 0 0 0 0 0 0 0 0 0 127 0" result="hardAlpha"/>
<feMorphology radius="1" operator="erode" in="SourceAlpha" result="effect2_dropShadow_207_682"/>
<feOffset dy="10"/>
<feGaussianBlur stdDeviation="12"/>
<feComposite in2="hardAlpha" operator="out"/>
<feColorMatrix type="matrix" values="0 0 0 0 0 0 0 0 0 0 0 0 0 0 0 0 0 0 0.2 0"/>
<feBlend mode="normal" in2="effect1_backgroundBlur_207_682" result="effect2_dropShadow_207_682"/>
<feBlend mode="normal" in="SourceGraphic" in2="effect2_dropShadow_207_682" result="shape"/>
</filter>
<linearGradient id="paint0_linear_207_682" x1="23.5216" y1="13.6444" x2="43.0985" y2="17.7006" gradientUnits="userSpaceOnUse">
<stop stop-color="white" stop-opacity="0.1"/>
<stop offset="1" stop-color="white" stop-opacity="0.16"/>
</linearGradient>
<linearGradient id="paint1_linear_207_682" x1="24.6344" y1="13.3332" x2="49.7444" y2="17.5088" gradientUnits="userSpaceOnUse">
<stop stop-color="white" stop-opacity="0.5"/>
<stop offset="0.442708" stop-color="white" stop-opacity="0"/>
<stop offset="0.635417" stop-color="white" stop-opacity="0"/>
<stop offset="1" stop-color="white" stop-opacity="0.5"/>
</linearGradient>
</defs>
</svg>
