<svg width="539" height="540" viewBox="0 0 539 540" fill="none" xmlns="http://www.w3.org/2000/svg">
<g filter="url(#filter0_f_207_323)">
<rect x="200.604" y="181.707" width="138" height="138" fill="#F5D5B9" fill-opacity="0.32"/>
</g>
<g filter="url(#filter1_bd_207_323)">
<mask id="path-2-inside-1_207_323" fill="white">
<path fill-rule="evenodd" clip-rule="evenodd" d="M31.7868 238.523C20.0711 250.239 20.0711 269.234 31.7868 280.95L99.5739 348.737V342.173C99.5739 338.211 102.785 335 106.746 335H162.401C166.363 335 169.574 338.211 169.574 342.173V397.828C169.574 401.789 166.363 405 162.401 405H155.837L248.097 497.26C259.813 508.976 278.808 508.976 290.523 497.26L412.783 375H375.315C371.354 375 368.142 371.789 368.142 367.828V312.173C368.142 308.211 371.354 305 375.315 305H430.97C434.931 305 438.142 308.211 438.142 312.173V349.641L506.834 280.95C518.549 269.234 518.549 250.239 506.834 238.523L401.31 133H375.315C371.354 133 368.142 129.789 368.142 125.828V99.832L290.523 22.2131C278.808 10.4974 259.813 10.4973 248.097 22.2131L169.574 100.736V155.828C169.574 159.789 166.363 163 162.401 163H107.31L31.7868 238.523ZM241.53 264.592H297.186C301.147 264.592 304.358 267.803 304.358 271.765V327.42C304.358 331.381 301.147 334.592 297.186 334.592H241.53C237.569 334.592 234.358 331.381 234.358 327.42V271.765C234.358 267.803 237.569 264.592 241.53 264.592ZM240.53 385.592H296.186C300.147 385.592 303.358 388.803 303.358 392.765V448.42C303.358 452.381 300.147 455.592 296.186 455.592H240.53C236.569 455.592 233.358 452.381 233.358 448.42V392.765C233.358 388.803 236.569 385.592 240.53 385.592ZM297.162 144H241.554C237.58 144 234.358 147.222 234.358 151.196V206.804C234.358 210.778 237.58 214 241.554 214H297.162C301.136 214 304.358 210.778 304.358 206.804V151.196C304.358 147.222 301.136 144 297.162 144ZM162.401 214H106.746C102.785 214 99.5739 217.211 99.5739 221.173V276.828C99.5739 280.789 102.785 284 106.746 284H162.401C166.363 284 169.574 280.789 169.574 276.828V221.173C169.574 217.211 166.363 214 162.401 214ZM430.97 184H375.315C371.354 184 368.142 187.211 368.142 191.173V246.828C368.142 250.789 371.354 254 375.315 254H430.97C434.931 254 438.142 250.789 438.142 246.828V191.173C438.142 187.211 434.931 184 430.97 184Z"/>
</mask>
<path fill-rule="evenodd" clip-rule="evenodd" d="M31.7868 238.523C20.0711 250.239 20.0711 269.234 31.7868 280.95L99.5739 348.737V342.173C99.5739 338.211 102.785 335 106.746 335H162.401C166.363 335 169.574 338.211 169.574 342.173V397.828C169.574 401.789 166.363 405 162.401 405H155.837L248.097 497.26C259.813 508.976 278.808 508.976 290.523 497.26L412.783 375H375.315C371.354 375 368.142 371.789 368.142 367.828V312.173C368.142 308.211 371.354 305 375.315 305H430.97C434.931 305 438.142 308.211 438.142 312.173V349.641L506.834 280.95C518.549 269.234 518.549 250.239 506.834 238.523L401.31 133H375.315C371.354 133 368.142 129.789 368.142 125.828V99.832L290.523 22.2131C278.808 10.4974 259.813 10.4973 248.097 22.2131L169.574 100.736V155.828C169.574 159.789 166.363 163 162.401 163H107.31L31.7868 238.523ZM241.53 264.592H297.186C301.147 264.592 304.358 267.803 304.358 271.765V327.42C304.358 331.381 301.147 334.592 297.186 334.592H241.53C237.569 334.592 234.358 331.381 234.358 327.42V271.765C234.358 267.803 237.569 264.592 241.53 264.592ZM240.53 385.592H296.186C300.147 385.592 303.358 388.803 303.358 392.765V448.42C303.358 452.381 300.147 455.592 296.186 455.592H240.53C236.569 455.592 233.358 452.381 233.358 448.42V392.765C233.358 388.803 236.569 385.592 240.53 385.592ZM297.162 144H241.554C237.58 144 234.358 147.222 234.358 151.196V206.804C234.358 210.778 237.58 214 241.554 214H297.162C301.136 214 304.358 210.778 304.358 206.804V151.196C304.358 147.222 301.136 144 297.162 144ZM162.401 214H106.746C102.785 214 99.5739 217.211 99.5739 221.173V276.828C99.5739 280.789 102.785 284 106.746 284H162.401C166.363 284 169.574 280.789 169.574 276.828V221.173C169.574 217.211 166.363 214 162.401 214ZM430.97 184H375.315C371.354 184 368.142 187.211 368.142 191.173V246.828C368.142 250.789 371.354 254 375.315 254H430.97C434.931 254 438.142 250.789 438.142 246.828V191.173C438.142 187.211 434.931 184 430.97 184Z" fill="url(#paint0_linear_207_323)" shape-rendering="crispEdges"/>
<path d="M31.7868 280.95L32.4939 280.242L31.7868 280.95ZM31.7868 238.523L31.0797 237.816L31.7868 238.523ZM99.5739 348.737L98.8667 349.444L100.574 351.151V348.737H99.5739ZM155.837 405V404H153.423L155.13 405.707L155.837 405ZM290.523 497.26L291.23 497.967L290.523 497.26ZM412.783 375L413.49 375.707L415.197 374H412.783V375ZM438.142 349.641H437.142V352.055L438.849 350.348L438.142 349.641ZM506.834 280.95L507.541 281.657H507.541L506.834 280.95ZM506.834 238.523L506.126 239.23L506.834 238.523ZM401.31 133L402.017 132.293L401.725 132H401.31V133ZM368.142 99.832H369.142V99.4178L368.849 99.1249L368.142 99.832ZM290.523 22.2131L291.23 21.506V21.506L290.523 22.2131ZM248.097 22.2131L247.39 21.5059L248.097 22.2131ZM169.574 100.736L168.867 100.029L168.574 100.322V100.736H169.574ZM107.31 163V162H106.896L106.603 162.293L107.31 163ZM32.4939 280.242C21.1687 268.917 21.1687 250.556 32.4939 239.23L31.0797 237.816C18.9734 249.922 18.9734 269.55 31.0797 281.657L32.4939 280.242ZM100.281 348.03L32.4939 280.242L31.0797 281.657L98.8667 349.444L100.281 348.03ZM98.5739 342.173V348.737H100.574V342.173H98.5739ZM106.746 334C102.233 334 98.5739 337.659 98.5739 342.173H100.574C100.574 338.764 103.337 336 106.746 336V334ZM162.401 334H106.746V336H162.401V334ZM170.574 342.173C170.574 337.659 166.915 334 162.401 334V336C165.81 336 168.574 338.764 168.574 342.173H170.574ZM170.574 397.828V342.173H168.574V397.828H170.574ZM162.401 406C166.915 406 170.574 402.341 170.574 397.828H168.574C168.574 401.237 165.81 404 162.401 404V406ZM155.837 406H162.401V404H155.837V406ZM248.804 496.553L156.544 404.293L155.13 405.707L247.39 497.967L248.804 496.553ZM289.816 496.553C278.491 507.878 260.129 507.878 248.804 496.553L247.39 497.967C259.496 510.073 279.124 510.073 291.23 497.967L289.816 496.553ZM412.076 374.293L289.816 496.553L291.23 497.967L413.49 375.707L412.076 374.293ZM375.315 376H412.783V374H375.315V376ZM367.142 367.828C367.142 372.341 370.801 376 375.315 376V374C371.906 374 369.142 371.237 369.142 367.828H367.142ZM367.142 312.173V367.828H369.142V312.173H367.142ZM375.315 304C370.801 304 367.142 307.659 367.142 312.173H369.142C369.142 308.764 371.906 306 375.315 306V304ZM430.97 304H375.315V306H430.97V304ZM439.142 312.173C439.142 307.659 435.483 304 430.97 304V306C434.379 306 437.142 308.764 437.142 312.173H439.142ZM439.142 349.641V312.173H437.142V349.641H439.142ZM506.126 280.243L437.435 348.934L438.849 350.348L507.541 281.657L506.126 280.243ZM506.126 239.23C517.452 250.556 517.452 268.917 506.126 280.243L507.541 281.657C519.647 269.55 519.647 249.922 507.541 237.816L506.126 239.23ZM400.603 133.707L506.126 239.23L507.541 237.816L402.017 132.293L400.603 133.707ZM375.315 134H401.31V132H375.315V134ZM367.142 125.828C367.142 130.341 370.801 134 375.315 134V132C371.906 132 369.142 129.237 369.142 125.828H367.142ZM367.142 99.832V125.828H369.142V99.832H367.142ZM289.816 22.9202L367.435 100.539L368.849 99.1249L291.23 21.506L289.816 22.9202ZM248.804 22.9202C260.129 11.595 278.491 11.595 289.816 22.9202L291.23 21.506C279.124 9.39972 259.496 9.39969 247.39 21.5059L248.804 22.9202ZM170.281 101.443L248.804 22.9202L247.39 21.5059L168.867 100.029L170.281 101.443ZM170.574 155.828V100.736H168.574V155.828H170.574ZM162.401 164C166.915 164 170.574 160.341 170.574 155.828H168.574C168.574 159.237 165.81 162 162.401 162V164ZM107.31 164H162.401V162H107.31V164ZM32.4939 239.23L108.017 163.707L106.603 162.293L31.0797 237.816L32.4939 239.23ZM297.186 263.592H241.53V265.592H297.186V263.592ZM305.358 271.765C305.358 267.251 301.699 263.592 297.186 263.592V265.592C300.595 265.592 303.358 268.356 303.358 271.765H305.358ZM305.358 327.42V271.765H303.358V327.42H305.358ZM297.186 335.592C301.699 335.592 305.358 331.933 305.358 327.42H303.358C303.358 330.829 300.595 333.592 297.186 333.592V335.592ZM241.53 335.592H297.186V333.592H241.53V335.592ZM233.358 327.42C233.358 331.933 237.017 335.592 241.53 335.592V333.592C238.122 333.592 235.358 330.829 235.358 327.42H233.358ZM233.358 271.765V327.42H235.358V271.765H233.358ZM241.53 263.592C237.017 263.592 233.358 267.251 233.358 271.765H235.358C235.358 268.356 238.122 265.592 241.53 265.592V263.592ZM296.186 384.592H240.53V386.592H296.186V384.592ZM304.358 392.765C304.358 388.251 300.699 384.592 296.186 384.592V386.592C299.595 386.592 302.358 389.356 302.358 392.765H304.358ZM304.358 448.42V392.765H302.358V448.42H304.358ZM296.186 456.592C300.699 456.592 304.358 452.933 304.358 448.42H302.358C302.358 451.829 299.595 454.592 296.186 454.592V456.592ZM240.53 456.592H296.186V454.592H240.53V456.592ZM232.358 448.42C232.358 452.933 236.017 456.592 240.53 456.592V454.592C237.122 454.592 234.358 451.829 234.358 448.42H232.358ZM232.358 392.765V448.42H234.358V392.765H232.358ZM240.53 384.592C236.017 384.592 232.358 388.251 232.358 392.765H234.358C234.358 389.356 237.122 386.592 240.53 386.592V384.592ZM241.554 145H297.162V143H241.554V145ZM235.358 151.196C235.358 147.774 238.132 145 241.554 145V143C237.027 143 233.358 146.669 233.358 151.196H235.358ZM235.358 206.804V151.196H233.358V206.804H235.358ZM241.554 213C238.132 213 235.358 210.226 235.358 206.804H233.358C233.358 211.331 237.027 215 241.554 215V213ZM297.162 213H241.554V215H297.162V213ZM303.358 206.804C303.358 210.226 300.584 213 297.162 213V215C301.689 215 305.358 211.331 305.358 206.804H303.358ZM303.358 151.196V206.804H305.358V151.196H303.358ZM297.162 145C300.584 145 303.358 147.774 303.358 151.196H305.358C305.358 146.669 301.689 143 297.162 143V145ZM106.746 215H162.401V213H106.746V215ZM100.574 221.173C100.574 217.764 103.337 215 106.746 215V213C102.233 213 98.5739 216.659 98.5739 221.173H100.574ZM100.574 276.828V221.173H98.5739V276.828H100.574ZM106.746 283C103.337 283 100.574 280.237 100.574 276.828H98.5739C98.5739 281.341 102.233 285 106.746 285V283ZM162.401 283H106.746V285H162.401V283ZM168.574 276.828C168.574 280.237 165.81 283 162.401 283V285C166.915 285 170.574 281.341 170.574 276.828H168.574ZM168.574 221.173V276.828H170.574V221.173H168.574ZM162.401 215C165.81 215 168.574 217.764 168.574 221.173H170.574C170.574 216.659 166.915 213 162.401 213V215ZM375.315 185H430.97V183H375.315V185ZM369.142 191.173C369.142 187.764 371.906 185 375.315 185V183C370.801 183 367.142 186.659 367.142 191.173H369.142ZM369.142 246.828V191.173H367.142V246.828H369.142ZM375.315 253C371.906 253 369.142 250.237 369.142 246.828H367.142C367.142 251.341 370.801 255 375.315 255V253ZM430.97 253H375.315V255H430.97V253ZM437.142 246.828C437.142 250.237 434.379 253 430.97 253V255C435.483 255 439.142 251.341 439.142 246.828H437.142ZM437.142 191.173V246.828H439.142V191.173H437.142ZM430.97 185C434.379 185 437.142 187.764 437.142 191.173H439.142C439.142 186.659 435.483 183 430.97 183V185Z" fill="url(#paint1_linear_207_323)" mask="url(#path-2-inside-1_207_323)"/>
</g>
<g filter="url(#filter2_d_207_323)">
<path d="M290.722 271.592H246.993C243.881 271.592 241.357 274.115 241.357 277.228V320.957C241.357 324.069 243.881 326.592 246.993 326.592H290.722C293.834 326.592 296.357 324.069 296.357 320.957V277.228C296.357 274.115 293.834 271.592 290.722 271.592Z" fill="#D9ECFF"/>
<path fill-rule="evenodd" clip-rule="evenodd" d="M268.857 293.855C265.87 293.855 263.569 295.545 262.286 296.729C262.194 296.815 262.073 296.862 261.948 296.861C261.823 296.86 261.703 296.81 261.613 296.723L259.596 294.744C259.55 294.7 259.514 294.647 259.489 294.589C259.464 294.531 259.452 294.468 259.452 294.405C259.452 294.342 259.465 294.279 259.491 294.221C259.516 294.163 259.553 294.111 259.599 294.067C261.137 292.636 264.373 290.112 268.857 290.112C273.341 290.112 276.577 292.636 278.112 294.068C278.158 294.112 278.195 294.164 278.22 294.222C278.245 294.28 278.258 294.343 278.259 294.406C278.259 294.469 278.246 294.532 278.221 294.59C278.197 294.648 278.16 294.701 278.115 294.745L276.101 296.723C276.011 296.81 275.89 296.859 275.765 296.86C275.64 296.861 275.519 296.814 275.428 296.728C274.144 295.544 271.842 293.855 268.857 293.855ZM253.956 300.55C253.909 300.507 253.871 300.456 253.844 300.399C253.817 300.341 253.802 300.279 253.799 300.216C253.797 300.153 253.806 300.09 253.828 300.03C253.85 299.971 253.884 299.916 253.927 299.87L255.851 297.809C255.936 297.717 256.054 297.662 256.178 297.656C256.303 297.65 256.426 297.693 256.519 297.777L262.201 302.891C262.288 302.97 262.4 303.013 262.518 303.014C262.635 303.014 262.748 302.972 262.836 302.894L268.541 297.852C268.628 297.774 268.741 297.732 268.857 297.732C268.973 297.732 269.086 297.774 269.173 297.852L274.878 302.894C274.966 302.972 275.079 303.014 275.196 303.014C275.313 303.013 275.426 302.97 275.513 302.891L281.194 297.777C281.287 297.693 281.409 297.649 281.534 297.654C281.659 297.66 281.777 297.714 281.862 297.805L283.786 299.867C283.829 299.913 283.863 299.967 283.885 300.027C283.907 300.086 283.917 300.149 283.914 300.213C283.911 300.276 283.896 300.338 283.869 300.395C283.842 300.453 283.804 300.504 283.757 300.546L275.536 307.95C275.449 308.029 275.336 308.072 275.219 308.073C275.102 308.073 274.988 308.031 274.901 307.953L269.172 302.89C269.085 302.813 268.973 302.77 268.856 302.77C268.74 302.77 268.628 302.813 268.541 302.89L262.812 307.953C262.724 308.031 262.611 308.073 262.494 308.073C262.377 308.072 262.264 308.029 262.177 307.95L253.956 300.55Z" fill="#278FFC"/>
</g>
<g filter="url(#filter3_d_207_323)">
<path d="M289.722 392.592H245.993C242.881 392.592 240.357 395.115 240.357 398.228V441.957C240.357 445.069 242.881 447.592 245.993 447.592H289.722C292.834 447.592 295.357 445.069 295.357 441.957V398.228C295.357 395.115 292.834 392.592 289.722 392.592Z" fill="white"/>
<path fill-rule="evenodd" clip-rule="evenodd" d="M261.22 417.365L267.857 410.728L274.494 417.372L278.356 413.51L267.857 403.005L257.359 413.503L261.221 417.365H261.22ZM250.77 420.092L254.632 416.231L258.494 420.092L254.632 423.954L250.77 420.092ZM261.22 422.819L267.857 429.456L274.494 422.812L278.363 426.674L267.857 437.179L257.359 426.681L257.352 426.674L261.221 422.82L261.22 422.819ZM277.221 420.092L281.083 416.231L284.944 420.092L281.083 423.954L277.221 420.092Z" fill="#F3BA2F"/>
<path fill-rule="evenodd" clip-rule="evenodd" d="M272.163 420.092L267.857 415.772L264.671 418.964L264.302 419.334L263.544 420.092L263.537 420.099L263.544 420.106L267.85 424.412L272.163 420.099V420.092Z" fill="#F3BA2F"/>
</g>
<g filter="url(#filter4_d_207_323)">
<path d="M290.704 151H247.011C243.889 151 241.357 153.532 241.357 156.654V200.347C241.357 203.469 243.889 206 247.011 206H290.704C293.826 206 296.357 203.469 296.357 200.347V156.654C296.357 153.532 293.826 151 290.704 151Z" fill="#C4D4FF"/>
<path d="M285.12 178.58C285.12 169.704 277.924 162.508 269.048 162.508C260.172 162.508 252.977 169.704 252.977 178.58C252.977 187.456 260.172 194.652 269.048 194.652C277.924 194.652 285.12 187.456 285.12 178.58Z" fill="#2760F0"/>
<path d="M269.317 168.937H269.317C263.843 168.937 259.406 173.374 259.406 178.847V178.848C259.406 184.321 263.843 188.758 269.317 188.758H269.317C274.791 188.758 279.228 184.321 279.228 178.848V178.847C279.228 173.374 274.791 168.937 269.317 168.937Z" fill="white"/>
<path d="M271.161 175.901H266.935C266.622 175.901 266.369 176.154 266.369 176.466V180.693C266.369 181.005 266.622 181.258 266.935 181.258H271.161C271.473 181.258 271.726 181.005 271.726 180.693V176.466C271.726 176.154 271.473 175.901 271.161 175.901Z" fill="#2760F0"/>
</g>
<g filter="url(#filter5_d_207_323)">
<path d="M155.939 100H112.21C109.097 100 106.574 102.523 106.574 105.635V149.365C106.574 152.477 109.097 155 112.21 155H155.939C159.051 155 161.574 152.477 161.574 149.365V105.635C161.574 102.523 159.051 100 155.939 100Z" fill="#FFD3A2"/>
<path fill-rule="evenodd" clip-rule="evenodd" d="M140.545 138.994L136.574 140.06V138.659L136.257 138.338H133.986V141.126H136.417L139.409 139.812L140.545 138.994Z" fill="#CDBDB2"/>
<path fill-rule="evenodd" clip-rule="evenodd" d="M127.602 138.994L131.485 140.06V138.659L131.816 138.338H134.074V141.126H131.643L128.651 139.812L127.602 138.994Z" fill="#CDBDB2"/>
<path fill-rule="evenodd" clip-rule="evenodd" d="M136.26 135.958L136.577 138.659L136.174 138.338H131.974L131.484 138.659L131.815 135.958L132.464 135.55L135.7 135.623L136.26 135.958Z" fill="white"/>
<path fill-rule="evenodd" clip-rule="evenodd" d="M138.449 117.64L136.505 122.238L135.613 135.622H132.463L131.485 122.238L129.701 117.64H138.449Z" fill="#F89C35"/>
<path fill-rule="evenodd" clip-rule="evenodd" d="M146.932 127.741L149.205 134.397L143.538 134.059H139.898V131.185L140.057 125.288L140.879 125.93L146.932 127.741Z" fill="#F89D35"/>
<path fill-rule="evenodd" clip-rule="evenodd" d="M142.646 128.485L136.016 128.646L136.748 132.091L139.898 131.274L142.646 128.485Z" fill="#D87C30"/>
<path fill-rule="evenodd" clip-rule="evenodd" d="M142.646 128.559L139.898 131.186V133.813L142.646 128.559Z" fill="#EA8D3A"/>
<path fill-rule="evenodd" clip-rule="evenodd" d="M139.898 131.272L136.661 132.09L135.611 135.622L136.344 136.03L139.894 133.899L139.898 131.272Z" fill="#F89D35"/>
<path fill-rule="evenodd" clip-rule="evenodd" d="M139.899 133.9L140.546 138.994L136.26 135.958L139.899 133.9Z" fill="#EB8F35"/>
<path fill-rule="evenodd" clip-rule="evenodd" d="M136.018 128.646L135.615 135.622L136.822 132.061L136.018 128.646Z" fill="#EA8E3A"/>
<path fill-rule="evenodd" clip-rule="evenodd" d="M143.624 133.988L139.898 133.9L140.546 138.994L143.624 133.988Z" fill="#D87C30"/>
<path fill-rule="evenodd" clip-rule="evenodd" d="M147.422 141.213L140.547 138.994L143.625 133.987L149.204 134.396L147.422 141.213Z" fill="#EB8F35"/>
<path fill-rule="evenodd" clip-rule="evenodd" d="M136.503 122.238L139.985 125.201L142.646 128.485L136.016 128.733L136.503 122.238Z" fill="#E8821E"/>
<path fill-rule="evenodd" clip-rule="evenodd" d="M140.546 138.994L136.26 135.958L136.576 138.585V140.06L139.496 139.49L140.546 138.994Z" fill="#DFCEC3"/>
<path fill-rule="evenodd" clip-rule="evenodd" d="M127.602 138.994L131.816 135.958L131.485 138.585V140.06L128.579 139.49L127.602 138.994Z" fill="#DFCEC3"/>
<path fill-rule="evenodd" clip-rule="evenodd" d="M137.801 130.12L136.91 132.017L140.06 131.185L137.801 130.12Z" fill="white"/>
<path fill-rule="evenodd" clip-rule="evenodd" d="M147.511 113.787L136.506 122.24L138.362 117.642L147.511 113.787Z" fill="#E88F35"/>
<path fill-rule="evenodd" clip-rule="evenodd" d="M147.508 113.787L148.961 118.295L148.156 123.228L148.719 123.55L147.914 124.294L148.562 124.863L147.67 125.68L148.234 126.177L146.938 127.811L140.863 125.931C137.9 123.522 136.432 122.296 136.49 122.24C136.547 122.183 140.23 119.362 147.508 113.787Z" fill="#8E5A30"/>
<path fill-rule="evenodd" clip-rule="evenodd" d="M121.214 127.741L118.941 134.397L124.608 134.059H128.248V131.185L128.089 125.288L127.282 125.93L121.214 127.741Z" fill="#F89D35"/>
<path fill-rule="evenodd" clip-rule="evenodd" d="M125.5 128.485L132.131 128.646L131.412 132.091L128.247 131.274L125.5 128.485Z" fill="#D87C30"/>
<path fill-rule="evenodd" clip-rule="evenodd" d="M125.502 128.559L128.249 131.186V133.813L125.502 128.559Z" fill="#EA8D3A"/>
<path fill-rule="evenodd" clip-rule="evenodd" d="M128.248 131.272L131.484 132.09L132.534 135.622L131.815 136.03L128.248 133.899V131.272Z" fill="#F89D35"/>
<path fill-rule="evenodd" clip-rule="evenodd" d="M128.245 133.901L127.598 138.995L131.812 136.032L128.245 133.901Z" fill="#EB8F35"/>
<path fill-rule="evenodd" clip-rule="evenodd" d="M132.131 128.646L132.533 135.623L131.326 132.061L132.131 128.646Z" fill="#EA8E3A"/>
<path fill-rule="evenodd" clip-rule="evenodd" d="M124.523 133.988L128.249 133.9L127.602 138.994L124.523 133.988Z" fill="#D87C30"/>
<path fill-rule="evenodd" clip-rule="evenodd" d="M120.725 141.213L127.6 138.994L124.521 133.987L118.941 134.396L120.725 141.213Z" fill="#EB8F35"/>
<path fill-rule="evenodd" clip-rule="evenodd" d="M131.642 122.237L128.161 125.2L125.5 128.485L132.131 128.733L131.642 122.237Z" fill="#E8821E"/>
<path fill-rule="evenodd" clip-rule="evenodd" d="M130.349 130.119L131.24 132.017L128.09 131.185L130.349 130.119Z" fill="white"/>
<path fill-rule="evenodd" clip-rule="evenodd" d="M120.643 113.787L131.644 122.24L129.788 117.642L120.643 113.787Z" fill="#E88F35"/>
<path fill-rule="evenodd" clip-rule="evenodd" d="M120.638 113.787L119.186 118.295L119.991 123.228L119.427 123.55L120.233 124.294L119.585 124.863L120.477 125.68L119.913 126.177L121.209 127.811L127.284 125.931C130.247 123.522 131.714 122.296 131.657 122.24C131.599 122.183 127.931 119.362 120.638 113.787Z" fill="#8E5A30"/>
</g>
<g filter="url(#filter6_d_207_323)">
<path d="M155.939 342H112.21C109.097 342 106.574 344.523 106.574 347.635V391.365C106.574 394.477 109.097 397 112.21 397H155.939C159.051 397 161.574 394.477 161.574 391.365V347.635C161.574 344.523 159.051 342 155.939 342Z" fill="#DCECFF"/>
<path fill-rule="evenodd" clip-rule="evenodd" d="M138.496 379.877C138.416 379.957 138.307 380.002 138.193 380.002C138.08 380.002 137.971 379.957 137.891 379.877L121.85 363.837C121.77 363.757 121.725 363.648 121.725 363.534C121.725 363.421 121.77 363.312 121.85 363.232L126.914 358.168C130.084 354.998 134.885 354.498 138.245 359.746C138.292 359.819 138.359 359.877 138.439 359.914C138.518 359.95 138.606 359.964 138.693 359.953C144.112 359.271 151.505 366.869 145.706 372.668L138.496 379.877ZM132.265 366.133C132.184 366.214 132.076 366.259 131.962 366.259C131.849 366.259 131.74 366.214 131.66 366.133L130.046 364.52C129.965 364.44 129.92 364.331 129.92 364.217C129.92 364.104 129.965 363.995 130.046 363.915L131.353 362.607C132.424 361.537 134.646 363.753 133.572 364.827L132.265 366.133ZM137.813 371.682C137.733 371.762 137.624 371.807 137.511 371.807C137.397 371.807 137.288 371.762 137.208 371.682L135.594 370.068C135.514 369.988 135.469 369.879 135.469 369.765C135.469 369.652 135.514 369.543 135.594 369.463L139.048 366.009C140.119 364.938 142.341 367.155 141.267 368.228L137.813 371.682Z" fill="#2926CF"/>
<path d="M124.141 370.422L135.743 382.023C135.823 382.103 135.868 382.212 135.868 382.326C135.868 382.439 135.823 382.548 135.743 382.628L134.204 384.17C134.123 384.25 134.014 384.295 133.901 384.295C133.788 384.295 133.679 384.25 133.598 384.17L121.994 372.571C121.914 372.491 121.869 372.382 121.869 372.269C121.869 372.155 121.914 372.046 121.994 371.966L123.536 370.425C123.575 370.385 123.622 370.353 123.674 370.331C123.726 370.309 123.782 370.298 123.838 370.298C123.894 370.298 123.95 370.308 124.002 370.33C124.054 370.351 124.102 370.382 124.141 370.422V370.422Z" fill="white"/>
</g>
<g filter="url(#filter7_d_207_323)">
<path d="M155.939 221H112.21C109.097 221 106.574 223.524 106.574 226.636V270.365C106.574 273.477 109.097 276 112.21 276H155.939C159.051 276 161.574 273.477 161.574 270.365V226.636C161.574 223.524 159.051 221 155.939 221Z" fill="#E6E3FF"/>
<path d="M119.646 234.073V262.927H127.662V242.089H148.5V234.073H119.646Z" fill="#6851FF"/>
<path d="M134.074 248.5V256.516H140.486V262.927C145.296 262.927 148.502 258.92 148.502 255.714V248.5H134.074Z" fill="#6851FF"/>
</g>
<g filter="url(#filter8_d_207_323)">
<path d="M424.507 312H380.778C377.666 312 375.143 314.523 375.143 317.635V361.365C375.143 364.477 377.666 367 380.778 367H424.507C427.619 367 430.143 364.477 430.143 361.365V317.635C430.143 314.523 427.619 312 424.507 312Z" fill="#FFDAFB"/>
<path d="M386.82 351.861L401.838 327.567C401.919 327.436 402.032 327.328 402.167 327.254C402.301 327.179 402.452 327.14 402.606 327.14C402.76 327.14 402.911 327.179 403.045 327.254C403.179 327.328 403.293 327.436 403.374 327.567L418.463 351.861H414.33L403.634 334.697C403.525 334.523 403.374 334.38 403.194 334.281C403.015 334.182 402.813 334.131 402.608 334.131C402.403 334.132 402.201 334.184 402.023 334.284C401.844 334.384 401.693 334.528 401.585 334.703L391.029 351.861H386.82Z" fill="#A53E99"/>
<path d="M401.177 338.347H404.031C404.348 338.347 404.652 338.473 404.876 338.697C405.1 338.921 405.226 339.225 405.226 339.542C405.226 339.859 405.1 340.163 404.876 340.387C404.652 340.611 404.348 340.737 404.031 340.737H401.177C400.86 340.737 400.556 340.611 400.332 340.387C400.108 340.163 399.982 339.859 399.982 339.542C399.982 339.225 400.108 338.921 400.332 338.697C400.556 338.473 400.86 338.347 401.177 338.347V338.347Z" fill="#A53E99"/>
</g>
<g filter="url(#filter9_d_207_323)">
<path d="M424.507 70.0005H380.778C377.666 70.0005 375.143 72.5236 375.143 75.636V119.365C375.143 122.477 377.666 125 380.778 125H424.507C427.619 125 430.143 122.477 430.143 119.365V75.636C430.143 72.5236 427.619 70.0005 424.507 70.0005Z" fill="#DFF1FE"/>
<path fill-rule="evenodd" clip-rule="evenodd" d="M395.521 111.25V104.622H388.891V105.358C388.891 106.921 389.512 108.42 390.617 109.525C391.723 110.629 393.221 111.25 394.784 111.25H395.521ZM399.45 111.25H405.834V104.622H399.449L399.45 111.25ZM409.763 111.25H410.5C412.062 111.25 413.561 110.629 414.666 109.524C415.77 108.419 416.391 106.921 416.392 105.358V89.6426C416.392 88.0798 415.771 86.581 414.666 85.4758C413.561 84.3706 412.063 83.7495 410.5 83.749H399.449V100.693H416.392V104.622H409.763L409.763 111.25ZM395.521 83.749H394.784C393.221 83.749 391.722 84.37 390.617 85.4752C389.512 86.5805 388.891 88.0795 388.891 89.6426V90.3792H395.521V83.749ZM388.891 94.3082V100.693H395.521V94.3082H388.891Z" fill="white"/>
</g>
<g filter="url(#filter10_d_207_323)">
<path d="M424.507 191H380.778C377.666 191 375.143 193.524 375.143 196.636V240.365C375.143 243.477 377.666 246 380.778 246H424.507C427.619 246 430.143 243.477 430.143 240.365V196.636C430.143 193.524 427.619 191 424.507 191Z" fill="#FFEAEC"/>
<path fill-rule="evenodd" clip-rule="evenodd" d="M399.144 204.104L397.045 207.414L392.846 209.064V216.682C392.846 219.154 393.333 220.754 393.995 221.937C394.708 223.094 395.599 224.132 396.634 225.012C398.533 226.654 400.528 228.181 402.608 229.586C404.919 227.868 408.629 225.03 410.047 223.688C411.77 222.058 412.436 219.829 412.436 216.681V209.064L408.237 207.417L406.141 204.104L415.237 207.091V216.682C415.237 220.153 414.504 223.219 412.028 225.562C410.278 227.221 405.579 230.76 403.502 232.29L402.678 232.896L401.829 232.322C399.328 230.66 396.932 228.844 394.655 226.885L394.611 226.844C393.395 225.791 392.352 224.553 391.521 223.176C390.469 221.178 389.96 218.938 390.046 216.682V207.091L399.144 204.104Z" fill="#FC354A"/>
<path d="M402.644 225.95L399.145 223.301L402.644 216.682L406.143 223.302L402.644 225.95Z" fill="#FC354A"/>
<path d="M402.641 211.386L397.045 221.315C395.365 219.727 394.945 218.667 394.945 216.682L402.641 204.104C404.506 206.973 408.659 213.504 410.338 216.682C410.338 219.33 408.938 220.433 408.239 221.315L402.641 211.386Z" fill="#FC354A"/>
</g>
<defs>
<filter id="filter0_f_207_323" x="106.604" y="87.7065" width="326" height="326" filterUnits="userSpaceOnUse" color-interpolation-filters="sRGB">
<feFlood flood-opacity="0" result="BackgroundImageFix"/>
<feBlend mode="normal" in="SourceGraphic" in2="BackgroundImageFix" result="shape"/>
<feGaussianBlur stdDeviation="47" result="effect1_foregroundBlur_207_323"/>
</filter>
<filter id="filter1_bd_207_323" x="-11" y="-20.5737" width="560.621" height="560.62" filterUnits="userSpaceOnUse" color-interpolation-filters="sRGB">
<feFlood flood-opacity="0" result="BackgroundImageFix"/>
<feGaussianBlur in="BackgroundImage" stdDeviation="17"/>
<feComposite in2="SourceAlpha" operator="in" result="effect1_backgroundBlur_207_323"/>
<feColorMatrix in="SourceAlpha" type="matrix" values="0 0 0 0 0 0 0 0 0 0 0 0 0 0 0 0 0 0 127 0" result="hardAlpha"/>
<feMorphology radius="1" operator="erode" in="SourceAlpha" result="effect2_dropShadow_207_323"/>
<feOffset dy="10"/>
<feGaussianBlur stdDeviation="12"/>
<feComposite in2="hardAlpha" operator="out"/>
<feColorMatrix type="matrix" values="0 0 0 0 0 0 0 0 0 0 0 0 0 0 0 0 0 0 0.2 0"/>
<feBlend mode="normal" in2="effect1_backgroundBlur_207_323" result="effect2_dropShadow_207_323"/>
<feBlend mode="normal" in="SourceGraphic" in2="effect2_dropShadow_207_323" result="shape"/>
</filter>
<filter id="filter2_d_207_323" x="227.357" y="261.592" width="103" height="103" filterUnits="userSpaceOnUse" color-interpolation-filters="sRGB">
<feFlood flood-opacity="0" result="BackgroundImageFix"/>
<feColorMatrix in="SourceAlpha" type="matrix" values="0 0 0 0 0 0 0 0 0 0 0 0 0 0 0 0 0 0 127 0" result="hardAlpha"/>
<feOffset dx="10" dy="14"/>
<feGaussianBlur stdDeviation="12"/>
<feComposite in2="hardAlpha" operator="out"/>
<feColorMatrix type="matrix" values="0 0 0 0 0 0 0 0 0 0 0 0 0 0 0 0 0 0 0.55 0"/>
<feBlend mode="normal" in2="BackgroundImageFix" result="effect1_dropShadow_207_323"/>
<feBlend mode="normal" in="SourceGraphic" in2="effect1_dropShadow_207_323" result="shape"/>
</filter>
<filter id="filter3_d_207_323" x="226.357" y="382.592" width="103" height="103" filterUnits="userSpaceOnUse" color-interpolation-filters="sRGB">
<feFlood flood-opacity="0" result="BackgroundImageFix"/>
<feColorMatrix in="SourceAlpha" type="matrix" values="0 0 0 0 0 0 0 0 0 0 0 0 0 0 0 0 0 0 127 0" result="hardAlpha"/>
<feOffset dx="10" dy="14"/>
<feGaussianBlur stdDeviation="12"/>
<feComposite in2="hardAlpha" operator="out"/>
<feColorMatrix type="matrix" values="0 0 0 0 0 0 0 0 0 0 0 0 0 0 0 0 0 0 0.55 0"/>
<feBlend mode="normal" in2="BackgroundImageFix" result="effect1_dropShadow_207_323"/>
<feBlend mode="normal" in="SourceGraphic" in2="effect1_dropShadow_207_323" result="shape"/>
</filter>
<filter id="filter4_d_207_323" x="227.357" y="141" width="103" height="103" filterUnits="userSpaceOnUse" color-interpolation-filters="sRGB">
<feFlood flood-opacity="0" result="BackgroundImageFix"/>
<feColorMatrix in="SourceAlpha" type="matrix" values="0 0 0 0 0 0 0 0 0 0 0 0 0 0 0 0 0 0 127 0" result="hardAlpha"/>
<feOffset dx="10" dy="14"/>
<feGaussianBlur stdDeviation="12"/>
<feComposite in2="hardAlpha" operator="out"/>
<feColorMatrix type="matrix" values="0 0 0 0 0 0 0 0 0 0 0 0 0 0 0 0 0 0 0.55 0"/>
<feBlend mode="normal" in2="BackgroundImageFix" result="effect1_dropShadow_207_323"/>
<feBlend mode="normal" in="SourceGraphic" in2="effect1_dropShadow_207_323" result="shape"/>
</filter>
<filter id="filter5_d_207_323" x="92.5742" y="90" width="103" height="103" filterUnits="userSpaceOnUse" color-interpolation-filters="sRGB">
<feFlood flood-opacity="0" result="BackgroundImageFix"/>
<feColorMatrix in="SourceAlpha" type="matrix" values="0 0 0 0 0 0 0 0 0 0 0 0 0 0 0 0 0 0 127 0" result="hardAlpha"/>
<feOffset dx="10" dy="14"/>
<feGaussianBlur stdDeviation="12"/>
<feComposite in2="hardAlpha" operator="out"/>
<feColorMatrix type="matrix" values="0 0 0 0 0 0 0 0 0 0 0 0 0 0 0 0 0 0 0.55 0"/>
<feBlend mode="normal" in2="BackgroundImageFix" result="effect1_dropShadow_207_323"/>
<feBlend mode="normal" in="SourceGraphic" in2="effect1_dropShadow_207_323" result="shape"/>
</filter>
<filter id="filter6_d_207_323" x="92.5742" y="332" width="103" height="103" filterUnits="userSpaceOnUse" color-interpolation-filters="sRGB">
<feFlood flood-opacity="0" result="BackgroundImageFix"/>
<feColorMatrix in="SourceAlpha" type="matrix" values="0 0 0 0 0 0 0 0 0 0 0 0 0 0 0 0 0 0 127 0" result="hardAlpha"/>
<feOffset dx="10" dy="14"/>
<feGaussianBlur stdDeviation="12"/>
<feComposite in2="hardAlpha" operator="out"/>
<feColorMatrix type="matrix" values="0 0 0 0 0 0 0 0 0 0 0 0 0 0 0 0 0 0 0.55 0"/>
<feBlend mode="normal" in2="BackgroundImageFix" result="effect1_dropShadow_207_323"/>
<feBlend mode="normal" in="SourceGraphic" in2="effect1_dropShadow_207_323" result="shape"/>
</filter>
<filter id="filter7_d_207_323" x="92.5742" y="211" width="103" height="103" filterUnits="userSpaceOnUse" color-interpolation-filters="sRGB">
<feFlood flood-opacity="0" result="BackgroundImageFix"/>
<feColorMatrix in="SourceAlpha" type="matrix" values="0 0 0 0 0 0 0 0 0 0 0 0 0 0 0 0 0 0 127 0" result="hardAlpha"/>
<feOffset dx="10" dy="14"/>
<feGaussianBlur stdDeviation="12"/>
<feComposite in2="hardAlpha" operator="out"/>
<feColorMatrix type="matrix" values="0 0 0 0 0 0 0 0 0 0 0 0 0 0 0 0 0 0 0.55 0"/>
<feBlend mode="normal" in2="BackgroundImageFix" result="effect1_dropShadow_207_323"/>
<feBlend mode="normal" in="SourceGraphic" in2="effect1_dropShadow_207_323" result="shape"/>
</filter>
<filter id="filter8_d_207_323" x="361.143" y="302" width="103" height="103" filterUnits="userSpaceOnUse" color-interpolation-filters="sRGB">
<feFlood flood-opacity="0" result="BackgroundImageFix"/>
<feColorMatrix in="SourceAlpha" type="matrix" values="0 0 0 0 0 0 0 0 0 0 0 0 0 0 0 0 0 0 127 0" result="hardAlpha"/>
<feOffset dx="10" dy="14"/>
<feGaussianBlur stdDeviation="12"/>
<feComposite in2="hardAlpha" operator="out"/>
<feColorMatrix type="matrix" values="0 0 0 0 0 0 0 0 0 0 0 0 0 0 0 0 0 0 0.55 0"/>
<feBlend mode="normal" in2="BackgroundImageFix" result="effect1_dropShadow_207_323"/>
<feBlend mode="normal" in="SourceGraphic" in2="effect1_dropShadow_207_323" result="shape"/>
</filter>
<filter id="filter9_d_207_323" x="361.143" y="60.0005" width="103" height="103" filterUnits="userSpaceOnUse" color-interpolation-filters="sRGB">
<feFlood flood-opacity="0" result="BackgroundImageFix"/>
<feColorMatrix in="SourceAlpha" type="matrix" values="0 0 0 0 0 0 0 0 0 0 0 0 0 0 0 0 0 0 127 0" result="hardAlpha"/>
<feOffset dx="10" dy="14"/>
<feGaussianBlur stdDeviation="12"/>
<feComposite in2="hardAlpha" operator="out"/>
<feColorMatrix type="matrix" values="0 0 0 0 0 0 0 0 0 0 0 0 0 0 0 0 0 0 0.55 0"/>
<feBlend mode="normal" in2="BackgroundImageFix" result="effect1_dropShadow_207_323"/>
<feBlend mode="normal" in="SourceGraphic" in2="effect1_dropShadow_207_323" result="shape"/>
</filter>
<filter id="filter10_d_207_323" x="361.143" y="181" width="103" height="103" filterUnits="userSpaceOnUse" color-interpolation-filters="sRGB">
<feFlood flood-opacity="0" result="BackgroundImageFix"/>
<feColorMatrix in="SourceAlpha" type="matrix" values="0 0 0 0 0 0 0 0 0 0 0 0 0 0 0 0 0 0 127 0" result="hardAlpha"/>
<feOffset dx="10" dy="14"/>
<feGaussianBlur stdDeviation="12"/>
<feComposite in2="hardAlpha" operator="out"/>
<feColorMatrix type="matrix" values="0 0 0 0 0 0 0 0 0 0 0 0 0 0 0 0 0 0 0.55 0"/>
<feBlend mode="normal" in2="BackgroundImageFix" result="effect1_dropShadow_207_323"/>
<feBlend mode="normal" in="SourceGraphic" in2="effect1_dropShadow_207_323" result="shape"/>
</filter>
<linearGradient id="paint0_linear_207_323" x1="16.1033" y1="261.107" x2="278.165" y2="89.002" gradientUnits="userSpaceOnUse">
<stop stop-color="white" stop-opacity="0.1"/>
<stop offset="1" stop-color="white" stop-opacity="0.16"/>
</linearGradient>
<linearGradient id="paint1_linear_207_323" x1="24.9941" y1="245.316" x2="349.733" y2="13.1805" gradientUnits="userSpaceOnUse">
<stop stop-color="white" stop-opacity="0.5"/>
<stop offset="0.442708" stop-color="white" stop-opacity="0"/>
<stop offset="0.635417" stop-color="white" stop-opacity="0"/>
<stop offset="1" stop-color="white" stop-opacity="0.5"/>
</linearGradient>
</defs>
</svg>
