<svg width="300" height="299" viewBox="0 0 300 299" fill="none" xmlns="http://www.w3.org/2000/svg">
<g filter="url(#filter0_bd_811_440)">
<mask id="path-1-inside-1_811_440" fill="white">
<path fill-rule="evenodd" clip-rule="evenodd" d="M180.128 31.1271L171.214 22.2131C159.498 10.4973 140.503 10.4973 128.787 22.2131L32.6208 118.38C20.9051 130.095 20.9051 149.09 32.6208 160.806L128.787 256.973C140.503 268.688 159.498 268.688 171.214 256.973L267.38 160.806C279.096 149.09 279.096 130.095 267.38 118.38L237.449 88.4482L225.279 91.3477L202.637 96.7425L186.644 79.8298L170.651 62.9168L180.128 31.1271Z"/>
</mask>
<path fill-rule="evenodd" clip-rule="evenodd" d="M180.128 31.1271L171.214 22.2131C159.498 10.4973 140.503 10.4973 128.787 22.2131L32.6208 118.38C20.9051 130.095 20.9051 149.09 32.6208 160.806L128.787 256.973C140.503 268.688 159.498 268.688 171.214 256.973L267.38 160.806C279.096 149.09 279.096 130.095 267.38 118.38L237.449 88.4482L225.279 91.3477L202.637 96.7425L186.644 79.8298L170.651 62.9168L180.128 31.1271Z" fill="url(#paint0_linear_811_440)" shape-rendering="crispEdges"/>
<path d="M171.214 22.2131L170.507 22.9202V22.9202L171.214 22.2131ZM180.128 31.1271L181.086 31.4128L181.256 30.8415L180.835 30.42L180.128 31.1271ZM128.787 22.2131L128.08 21.506L128.787 22.2131ZM32.6208 118.38L31.9137 117.672L32.6208 118.38ZM32.6208 160.806L33.3279 160.099H33.3279L32.6208 160.806ZM128.787 256.973L128.08 257.68L128.787 256.973ZM171.214 256.973L170.507 256.265L171.214 256.973ZM267.38 160.806L268.087 161.513L267.38 160.806ZM267.38 118.38L266.673 119.087L267.38 118.38ZM237.449 88.4482L238.156 87.7411L237.761 87.3459L237.217 87.4754L237.449 88.4482ZM225.279 91.3477L225.047 90.375L225.279 91.3477ZM202.637 96.7425L201.91 97.4296L202.307 97.8491L202.868 97.7153L202.637 96.7425ZM186.644 79.8298L187.37 79.1427L187.37 79.1427L186.644 79.8298ZM170.651 62.9168L169.692 62.6311L169.527 63.1844L169.924 63.6039L170.651 62.9168ZM170.507 22.9202L179.421 31.8342L180.835 30.42L171.921 21.506L170.507 22.9202ZM129.494 22.9202C140.82 11.595 159.181 11.595 170.507 22.9202L171.921 21.506C159.815 9.39971 140.186 9.39971 128.08 21.506L129.494 22.9202ZM33.3279 119.087L129.494 22.9202L128.08 21.506L31.9137 117.672L33.3279 119.087ZM33.3279 160.099C22.0027 148.774 22.0027 130.412 33.3279 119.087L31.9137 117.672C19.8074 129.779 19.8074 149.407 31.9137 161.513L33.3279 160.099ZM129.494 256.265L33.3279 160.099L31.9137 161.513L128.08 257.68L129.494 256.265ZM170.507 256.265C159.181 267.591 140.82 267.591 129.494 256.265L128.08 257.68C140.186 269.786 159.815 269.786 171.921 257.68L170.507 256.265ZM266.673 160.099L170.507 256.265L171.921 257.68L268.087 161.513L266.673 160.099ZM266.673 119.087C277.998 130.412 277.998 148.774 266.673 160.099L268.087 161.513C280.194 149.407 280.194 129.779 268.087 117.672L266.673 119.087ZM236.742 89.1553L266.673 119.087L268.087 117.672L238.156 87.7411L236.742 89.1553ZM237.217 87.4754L225.047 90.375L225.511 92.3205L237.681 89.4209L237.217 87.4754ZM225.047 90.375L202.405 95.7697L202.868 97.7153L225.511 92.3205L225.047 90.375ZM203.363 96.0554L187.37 79.1427L185.917 80.5168L201.91 97.4296L203.363 96.0554ZM187.37 79.1427L171.377 62.2297L169.924 63.6039L185.917 80.5168L187.37 79.1427ZM171.609 63.2025L181.086 31.4128L179.169 30.8414L169.692 62.6311L171.609 63.2025Z" fill="url(#paint1_linear_811_440)" mask="url(#path-1-inside-1_811_440)"/>
</g>
<g filter="url(#filter1_d_811_440)">
<mask id="mask0_811_440" style="mask-type:alpha" maskUnits="userSpaceOnUse" x="180" y="17" width="71" height="70">
<path fill-rule="evenodd" clip-rule="evenodd" d="M238.419 30.3569L226.274 17.1291L208.807 21.3059L191.342 25.482L180.703 60.291L192.848 73.5176L204.995 86.7458L222.46 82.5686L239.925 78.3925L250.564 43.5847L238.419 30.3569Z" fill="white"/>
</mask>
<g mask="url(#mask0_811_440)">
<path fill-rule="evenodd" clip-rule="evenodd" d="M238.419 30.3569L226.274 17.1291L208.807 21.3059L191.342 25.482L180.703 60.291L192.848 73.5176L204.995 86.7458L222.46 82.5686L239.925 78.3925L250.564 43.5847L238.419 30.3569Z" fill="#F85E11"/>
<path fill-rule="evenodd" clip-rule="evenodd" d="M209.313 49.7797L207.088 57.0584L201.341 60.2155L204.94 48.4423C205.888 45.419 207.96 42.8828 210.705 41.3878C213.45 39.8928 216.646 39.5603 219.595 40.4616C222.544 41.363 225.007 43.4252 226.447 46.1995C227.888 48.9739 228.188 52.2353 227.284 55.2719L224.372 64.7978C224.286 65.0975 224.142 65.3773 223.95 65.6213C223.757 65.8653 223.52 66.0684 223.252 66.2188C222.983 66.3693 222.689 66.4641 222.386 66.4976C222.083 66.5311 221.777 66.5022 221.487 66.4135C221.197 66.3248 220.927 66.1779 220.695 65.9807C220.462 65.7836 220.272 65.5405 220.133 65.2656C219.995 64.9908 219.911 64.6896 219.888 64.3798C219.865 64.0699 219.903 63.7578 219.999 63.4611L222.91 53.9351C223.456 52.0886 223.27 50.1075 222.393 48.4225C221.516 46.7374 220.019 45.4845 218.227 44.9368C216.435 44.389 214.493 44.5906 212.823 45.4973C211.154 46.4041 209.893 47.9435 209.313 49.7797Z" fill="white"/>
<path d="M218.495 55.9835C218.005 57.5855 216.31 58.4872 214.708 57.9976C213.106 57.5079 212.204 55.8123 212.693 54.2103C213.183 52.6083 214.879 51.7065 216.481 52.1962C218.083 52.6859 218.985 54.3815 218.495 55.9835Z" fill="white"/>
</g>
</g>
<defs>
<filter id="filter0_bd_811_440" x="-10.166" y="-20.5737" width="320.334" height="320.333" filterUnits="userSpaceOnUse" color-interpolation-filters="sRGB">
<feFlood flood-opacity="0" result="BackgroundImageFix"/>
<feGaussianBlur in="BackgroundImage" stdDeviation="17"/>
<feComposite in2="SourceAlpha" operator="in" result="effect1_backgroundBlur_811_440"/>
<feColorMatrix in="SourceAlpha" type="matrix" values="0 0 0 0 0 0 0 0 0 0 0 0 0 0 0 0 0 0 127 0" result="hardAlpha"/>
<feMorphology radius="1" operator="erode" in="SourceAlpha" result="effect2_dropShadow_811_440"/>
<feOffset dy="10"/>
<feGaussianBlur stdDeviation="12"/>
<feComposite in2="hardAlpha" operator="out"/>
<feColorMatrix type="matrix" values="0 0 0 0 0 0 0 0 0 0 0 0 0 0 0 0 0 0 0.2 0"/>
<feBlend mode="normal" in2="effect1_backgroundBlur_811_440" result="effect2_dropShadow_811_440"/>
<feBlend mode="normal" in="SourceGraphic" in2="effect2_dropShadow_811_440" result="shape"/>
</filter>
<filter id="filter1_d_811_440" x="174.703" y="16.1289" width="93.8613" height="93.6167" filterUnits="userSpaceOnUse" color-interpolation-filters="sRGB">
<feFlood flood-opacity="0" result="BackgroundImageFix"/>
<feColorMatrix in="SourceAlpha" type="matrix" values="0 0 0 0 0 0 0 0 0 0 0 0 0 0 0 0 0 0 127 0" result="hardAlpha"/>
<feOffset dx="6" dy="11"/>
<feGaussianBlur stdDeviation="6"/>
<feComposite in2="hardAlpha" operator="out"/>
<feColorMatrix type="matrix" values="0 0 0 0 0 0 0 0 0 0 0 0 0 0 0 0 0 0 0.45 0"/>
<feBlend mode="normal" in2="BackgroundImageFix" result="effect1_dropShadow_811_440"/>
<feBlend mode="normal" in="SourceGraphic" in2="effect1_dropShadow_811_440" result="shape"/>
</filter>
<linearGradient id="paint0_linear_811_440" x1="149.267" y1="3.96198" x2="241.455" y2="144.336" gradientUnits="userSpaceOnUse">
<stop stop-color="white" stop-opacity="0.33"/>
<stop offset="1" stop-color="white" stop-opacity="0.1"/>
</linearGradient>
<linearGradient id="paint1_linear_811_440" x1="157.725" y1="8.72437" x2="282.069" y2="182.672" gradientUnits="userSpaceOnUse">
<stop stop-color="white" stop-opacity="0.5"/>
<stop offset="0.442708" stop-color="white" stop-opacity="0"/>
<stop offset="0.635417" stop-color="white" stop-opacity="0"/>
<stop offset="1" stop-color="white" stop-opacity="0.5"/>
</linearGradient>
</defs>
</svg>
