<svg width="254" height="254" viewBox="0 0 254 254" fill="none" xmlns="http://www.w3.org/2000/svg">
<g filter="url(#filter0_bd_402_296)">
<mask id="path-1-inside-1_402_296" fill="white">
<path fill-rule="evenodd" clip-rule="evenodd" d="M134.136 14.3176C124.294 11.9174 113.474 14.5608 105.787 22.2477L32.2477 95.7868C20.532 107.503 20.532 126.498 32.2477 138.213L105.787 211.752C117.503 223.468 136.498 223.468 148.213 211.752L221.752 138.213C233.468 126.498 233.468 107.503 221.752 95.7868L183.616 57.6504L180.267 65.9929L162.533 68.5272L144.798 71.0615L133.736 56.969L122.674 42.8762L134.136 14.3176Z"/>
</mask>
<path fill-rule="evenodd" clip-rule="evenodd" d="M134.136 14.3176C124.294 11.9174 113.474 14.5608 105.787 22.2477L32.2477 95.7868C20.532 107.503 20.532 126.498 32.2477 138.213L105.787 211.752C117.503 223.468 136.498 223.468 148.213 211.752L221.752 138.213C233.468 126.498 233.468 107.503 221.752 95.7868L183.616 57.6504L180.267 65.9929L162.533 68.5272L144.798 71.0615L133.736 56.969L122.674 42.8762L134.136 14.3176Z" fill="url(#paint0_linear_402_296)" shape-rendering="crispEdges"/>
<path d="M105.787 22.2477L106.494 22.9548L105.787 22.2477ZM134.136 14.3176L135.064 14.6901L135.494 13.6194L134.373 13.3461L134.136 14.3176ZM32.2477 95.7868L31.5406 95.0797L32.2477 95.7868ZM32.2477 138.213L31.5406 138.92L32.2477 138.213ZM105.787 211.752L105.08 212.459L105.787 211.752ZM221.752 95.7868L221.045 96.4939L221.752 95.7868ZM183.616 57.6504L184.323 56.9433L183.252 55.8723L182.688 57.2779L183.616 57.6504ZM180.267 65.9929L180.409 66.9828L180.98 66.9012L181.195 66.3654L180.267 65.9929ZM162.533 68.5272L162.674 69.5172L162.533 68.5272ZM144.798 71.0615L144.011 71.679L144.368 72.1332L144.939 72.0515L144.798 71.0615ZM133.736 56.969L134.523 56.3515L134.523 56.3515L133.736 56.969ZM122.674 42.8762L121.746 42.5037L121.531 43.0395L121.887 43.4937L122.674 42.8762ZM106.494 22.9548C113.924 15.525 124.382 12.9683 133.899 15.2891L134.373 13.3461C124.206 10.8666 113.024 13.5967 105.08 21.5406L106.494 22.9548ZM32.9548 96.4939L106.494 22.9548L105.08 21.5406L31.5406 95.0797L32.9548 96.4939ZM32.9548 137.506C21.6296 126.181 21.6296 107.819 32.9548 96.4939L31.5406 95.0797C19.4344 107.186 19.4344 126.814 31.5406 138.92L32.9548 137.506ZM106.494 211.045L32.9548 137.506L31.5406 138.92L105.08 212.459L106.494 211.045ZM147.506 211.045C136.181 222.37 117.819 222.37 106.494 211.045L105.08 212.459C117.186 224.566 136.814 224.566 148.92 212.459L147.506 211.045ZM221.045 137.506L147.506 211.045L148.92 212.459L222.459 138.92L221.045 137.506ZM221.045 96.4939C232.37 107.819 232.37 126.181 221.045 137.506L222.459 138.92C234.566 126.814 234.566 107.186 222.459 95.0797L221.045 96.4939ZM182.909 58.3575L221.045 96.4939L222.459 95.0797L184.323 56.9433L182.909 58.3575ZM181.195 66.3654L184.544 58.0229L182.688 57.2779L179.339 65.6204L181.195 66.3654ZM162.674 69.5172L180.409 66.9828L180.126 65.0029L162.391 67.5373L162.674 69.5172ZM144.939 72.0515L162.674 69.5172L162.391 67.5373L144.656 70.0716L144.939 72.0515ZM132.949 57.5864L144.011 71.679L145.584 70.4441L134.523 56.3515L132.949 57.5864ZM121.887 43.4937L132.949 57.5864L134.523 56.3515L123.46 42.2588L121.887 43.4937ZM133.208 13.9451L121.746 42.5037L123.602 43.2487L135.064 14.6901L133.208 13.9451Z" fill="url(#paint1_linear_402_296)" mask="url(#path-1-inside-1_402_296)"/>
</g>
<mask id="mask0_402_296" style="mask-type:alpha" maskUnits="userSpaceOnUse" x="131" y="11" width="55" height="53">
<path fill-rule="evenodd" clip-rule="evenodd" d="M177.139 22.2925L168.681 11.6203L155.241 13.8188L141.803 16.0167L131.842 41.7581L140.3 52.4295L148.759 63.1021L162.198 60.9033L175.636 58.7053L185.597 32.9648L177.139 22.2925Z" fill="white"/>
</mask>
<g mask="url(#mask0_402_296)">
<g filter="url(#filter1_d_402_296)">
<path fill-rule="evenodd" clip-rule="evenodd" d="M177.139 22.2925L168.681 11.6203L155.241 13.8188L141.803 16.0167L131.842 41.7581L140.3 52.4295L148.759 63.1021L162.198 60.9033L175.636 58.7053L185.597 32.9648L177.139 22.2925Z" fill="#F85E11"/>
</g>
<path fill-rule="evenodd" clip-rule="evenodd" d="M157.515 42.7675L152.12 40.6796L147.499 42.7225L156.227 46.0997C158.478 46.9476 160.974 46.872 163.17 45.8894C165.366 44.9069 167.085 43.0969 167.953 40.8532C168.821 38.6095 168.768 36.1138 167.806 33.9089C166.843 31.704 165.049 29.9684 162.813 29.0799L155.751 26.3472C155.312 26.1874 154.827 26.2063 154.401 26.3997C153.976 26.5931 153.643 26.9455 153.474 27.3815C153.305 27.8175 153.314 28.3022 153.499 28.7318C153.684 29.1613 154.029 29.5015 154.462 29.6791L156.541 30.4836L153.225 39.0522C153.055 39.494 153.068 39.9849 153.259 40.4177C153.45 40.8506 153.805 41.1902 154.246 41.3623C154.688 41.5318 155.179 41.5194 155.612 41.3281C156.045 41.1368 156.384 40.7821 156.556 40.3412L159.872 31.7726L161.523 32.4115C162.211 32.6686 162.841 33.0599 163.377 33.5624C163.913 34.0648 164.344 34.6683 164.645 35.3385C164.946 36.0086 165.11 36.7319 165.13 37.4662C165.149 38.2006 165.023 38.9315 164.758 39.6166C164.492 40.3017 164.094 40.9274 163.585 41.4575C163.077 41.9875 162.468 42.4114 161.794 42.7045C161.121 42.9975 160.396 43.1537 159.661 43.1646C158.927 43.1754 158.197 43.0405 157.515 42.7675Z" fill="white"/>
</g>
<defs>
<filter id="filter0_bd_402_296" x="-10.5391" y="-20.5391" width="275.078" height="275.078" filterUnits="userSpaceOnUse" color-interpolation-filters="sRGB">
<feFlood flood-opacity="0" result="BackgroundImageFix"/>
<feGaussianBlur in="BackgroundImage" stdDeviation="17"/>
<feComposite in2="SourceAlpha" operator="in" result="effect1_backgroundBlur_402_296"/>
<feColorMatrix in="SourceAlpha" type="matrix" values="0 0 0 0 0 0 0 0 0 0 0 0 0 0 0 0 0 0 127 0" result="hardAlpha"/>
<feMorphology radius="1" operator="erode" in="SourceAlpha" result="effect2_dropShadow_402_296"/>
<feOffset dy="10"/>
<feGaussianBlur stdDeviation="12"/>
<feComposite in2="hardAlpha" operator="out"/>
<feColorMatrix type="matrix" values="0 0 0 0 0 0 0 0 0 0 0 0 0 0 0 0 0 0 0.2 0"/>
<feBlend mode="normal" in2="effect1_backgroundBlur_402_296" result="effect2_dropShadow_402_296"/>
<feBlend mode="normal" in="SourceGraphic" in2="effect2_dropShadow_402_296" result="shape"/>
</filter>
<filter id="filter1_d_402_296" x="125.842" y="10.6201" width="77.7559" height="75.4819" filterUnits="userSpaceOnUse" color-interpolation-filters="sRGB">
<feFlood flood-opacity="0" result="BackgroundImageFix"/>
<feColorMatrix in="SourceAlpha" type="matrix" values="0 0 0 0 0 0 0 0 0 0 0 0 0 0 0 0 0 0 127 0" result="hardAlpha"/>
<feOffset dx="6" dy="11"/>
<feGaussianBlur stdDeviation="6"/>
<feComposite in2="hardAlpha" operator="out"/>
<feColorMatrix type="matrix" values="0 0 0 0 0 0 0 0 0 0 0 0 0 0 0 0 0 0 0.45 0"/>
<feBlend mode="normal" in2="BackgroundImageFix" result="effect1_dropShadow_402_296"/>
<feBlend mode="normal" in="SourceGraphic" in2="effect1_dropShadow_402_296" result="shape"/>
</filter>
<linearGradient id="paint0_linear_402_296" x1="126.386" y1="3.51283" x2="203.523" y2="120.969" gradientUnits="userSpaceOnUse">
<stop stop-color="white" stop-opacity="0.1"/>
<stop offset="1" stop-color="white" stop-opacity="0.16"/>
</linearGradient>
<linearGradient id="paint1_linear_402_296" x1="133.463" y1="7.49764" x2="237.506" y2="153.046" gradientUnits="userSpaceOnUse">
<stop stop-color="white" stop-opacity="0.5"/>
<stop offset="0.442708" stop-color="white" stop-opacity="0"/>
<stop offset="0.635417" stop-color="white" stop-opacity="0"/>
<stop offset="1" stop-color="white" stop-opacity="0.5"/>
</linearGradient>
</defs>
</svg>
