<svg width="396" height="396" viewBox="0 0 396 396" fill="none" xmlns="http://www.w3.org/2000/svg">
<g filter="url(#filter0_bd_402_294)">
<mask id="path-1-inside-1_402_294" fill="white">
<path fill-rule="evenodd" clip-rule="evenodd" d="M101.253 98.0708L32.5368 166.787C20.8211 178.502 20.8211 197.497 32.5368 209.213L176.787 353.463C188.502 365.178 207.497 365.178 219.213 353.463L363.463 209.213C375.178 197.497 375.178 178.502 363.463 166.787L219.213 22.5368C207.875 11.1987 189.719 10.8332 177.942 21.4404L185.783 23.5419L200.867 79.8334L180.263 100.436L159.659 121.042L131.511 113.499L103.366 105.959L101.253 98.0708Z"/>
</mask>
<path fill-rule="evenodd" clip-rule="evenodd" d="M101.253 98.0708L32.5368 166.787C20.8211 178.502 20.8211 197.497 32.5368 209.213L176.787 353.463C188.502 365.178 207.497 365.178 219.213 353.463L363.463 209.213C375.178 197.497 375.178 178.502 363.463 166.787L219.213 22.5368C207.875 11.1987 189.719 10.8332 177.942 21.4404L185.783 23.5419L200.867 79.8334L180.263 100.436L159.659 121.042L131.511 113.499L103.366 105.959L101.253 98.0708Z" fill="url(#paint0_linear_402_294)" shape-rendering="crispEdges"/>
<path d="M32.5368 166.787L31.8297 166.079L32.5368 166.787ZM101.253 98.0708L102.219 97.8119L101.77 96.1389L100.546 97.3636L101.253 98.0708ZM32.5368 209.213L31.8297 209.92L32.5368 209.213ZM219.213 353.463L219.92 354.17L219.213 353.463ZM363.463 209.213L362.756 208.506L363.463 209.213ZM363.463 166.787L364.17 166.079L363.463 166.787ZM219.213 22.5368L219.92 21.8297H219.92L219.213 22.5368ZM177.942 21.4404L177.272 20.6974L175.904 21.9297L177.683 22.4063L177.942 21.4404ZM185.783 23.5419L186.749 23.2831L186.6 22.7254L186.042 22.576L185.783 23.5419ZM200.867 79.8334L201.574 80.5405L201.982 80.1323L201.833 79.5746L200.867 79.8334ZM180.263 100.436L179.555 99.7294L179.555 99.7294L180.263 100.436ZM159.659 121.042L159.4 122.007L159.958 122.157L160.366 121.749L159.659 121.042ZM131.511 113.499L131.77 112.533L131.77 112.533L131.511 113.499ZM103.366 105.959L102.4 106.217L102.55 106.775L103.107 106.925L103.366 105.959ZM33.2439 167.494L101.96 98.7779L100.546 97.3636L31.8297 166.079L33.2439 167.494ZM33.2439 208.506C21.9187 197.181 21.9187 178.819 33.2439 167.494L31.8297 166.079C19.7234 178.186 19.7234 197.814 31.8297 209.92L33.2439 208.506ZM177.494 352.756L33.2439 208.506L31.8297 209.92L176.079 354.17L177.494 352.756ZM218.506 352.756C207.181 364.081 188.819 364.081 177.494 352.756L176.079 354.17C188.186 366.276 207.814 366.276 219.92 354.17L218.506 352.756ZM362.756 208.506L218.506 352.756L219.92 354.17L364.17 209.92L362.756 208.506ZM362.756 167.494C374.081 178.819 374.081 197.181 362.756 208.506L364.17 209.92C376.276 197.814 376.276 178.186 364.17 166.079L362.756 167.494ZM218.506 23.2439L362.756 167.494L364.17 166.079L219.92 21.8297L218.506 23.2439ZM178.611 22.1835C189.995 11.9304 207.546 12.284 218.506 23.2439L219.92 21.8297C208.204 10.1134 189.443 9.73603 177.272 20.6974L178.611 22.1835ZM177.683 22.4063L185.525 24.5078L186.042 22.576L178.201 20.4745L177.683 22.4063ZM184.817 23.8007L199.901 80.0922L201.833 79.5746L186.749 23.2831L184.817 23.8007ZM200.16 79.1263L179.555 99.7294L180.97 101.144L201.574 80.5405L200.16 79.1263ZM179.555 99.7294L158.952 120.334L160.366 121.749L180.97 101.144L179.555 99.7294ZM159.918 120.076L131.77 112.533L131.253 114.465L159.4 122.007L159.918 120.076ZM131.77 112.533L103.625 104.993L103.107 106.925L131.253 114.465L131.77 112.533ZM104.332 105.7L102.219 97.8119L100.287 98.3296L102.4 106.217L104.332 105.7Z" fill="url(#paint1_linear_402_294)" mask="url(#path-1-inside-1_402_294)"/>
</g>
<g filter="url(#filter1_d_402_294)">
<mask id="mask0_402_294" style="mask-type:alpha" maskUnits="userSpaceOnUse" x="98" y="17" width="93" height="94">
<path fill-rule="evenodd" clip-rule="evenodd" d="M154.818 23.8225L132.017 17.5219L115.42 34.3792L98.8238 51.2345L111.233 97.548L134.034 103.847L156.836 110.147L173.432 93.2903L190.028 76.435L177.619 30.1232L154.818 23.8225Z" fill="white"/>
</mask>
<g mask="url(#mask0_402_294)">
<path fill-rule="evenodd" clip-rule="evenodd" d="M154.818 23.8225L132.017 17.5219L115.42 34.3792L98.8238 51.2345L111.233 97.548L134.034 103.847L156.836 110.147L173.432 93.2903L190.028 76.435L177.619 30.1232L154.818 23.8225Z" fill="#F85E11"/>
<path fill-rule="evenodd" clip-rule="evenodd" d="M136.134 66.2655L133.544 56.6002L125.979 52.2319L130.167 67.8643C131.25 71.907 133.895 75.3536 137.52 77.4463C141.144 79.5389 145.452 80.106 149.494 79.0228C153.537 77.9395 156.984 75.2947 159.076 71.6702C161.169 68.0456 161.736 63.7384 160.653 59.6957L157.262 47.0416C157.036 46.2667 156.515 45.6111 155.811 45.2153C155.107 44.8195 154.277 44.7148 153.497 44.9238C152.717 45.1328 152.05 45.6387 151.639 46.3334C151.227 47.028 151.104 47.8561 151.295 48.6405L154.686 61.2945C155.345 63.7547 155 66.3759 153.726 68.5816C152.453 70.7873 150.355 72.3967 147.895 73.0559C145.435 73.715 142.814 73.37 140.608 72.0965C138.403 70.8231 136.793 68.7256 136.134 66.2655Z" fill="white"/>
</g>
</g>
<defs>
<filter id="filter0_bd_402_294" x="-10.25" y="-20.25" width="416.5" height="416.5" filterUnits="userSpaceOnUse" color-interpolation-filters="sRGB">
<feFlood flood-opacity="0" result="BackgroundImageFix"/>
<feGaussianBlur in="BackgroundImage" stdDeviation="17"/>
<feComposite in2="SourceAlpha" operator="in" result="effect1_backgroundBlur_402_294"/>
<feColorMatrix in="SourceAlpha" type="matrix" values="0 0 0 0 0 0 0 0 0 0 0 0 0 0 0 0 0 0 127 0" result="hardAlpha"/>
<feMorphology radius="1" operator="erode" in="SourceAlpha" result="effect2_dropShadow_402_294"/>
<feOffset dy="10"/>
<feGaussianBlur stdDeviation="12"/>
<feComposite in2="hardAlpha" operator="out"/>
<feColorMatrix type="matrix" values="0 0 0 0 0 0 0 0 0 0 0 0 0 0 0 0 0 0 0.2 0"/>
<feBlend mode="normal" in2="effect1_backgroundBlur_402_294" result="effect2_dropShadow_402_294"/>
<feBlend mode="normal" in="SourceGraphic" in2="effect2_dropShadow_402_294" result="shape"/>
</filter>
<filter id="filter1_d_402_294" x="92.8242" y="16.522" width="115.203" height="116.625" filterUnits="userSpaceOnUse" color-interpolation-filters="sRGB">
<feFlood flood-opacity="0" result="BackgroundImageFix"/>
<feColorMatrix in="SourceAlpha" type="matrix" values="0 0 0 0 0 0 0 0 0 0 0 0 0 0 0 0 0 0 127 0" result="hardAlpha"/>
<feOffset dx="6" dy="11"/>
<feGaussianBlur stdDeviation="6"/>
<feComposite in2="hardAlpha" operator="out"/>
<feColorMatrix type="matrix" values="0 0 0 0 0 0 0 0 0 0 0 0 0 0 0 0 0 0 0.45 0"/>
<feBlend mode="normal" in2="BackgroundImageFix" result="effect1_dropShadow_402_294"/>
<feBlend mode="normal" in="SourceGraphic" in2="effect1_dropShadow_402_294" result="shape"/>
</filter>
<linearGradient id="paint0_linear_402_294" x1="197.012" y1="5.31335" x2="321.184" y2="194.389" gradientUnits="userSpaceOnUse">
<stop stop-color="white" stop-opacity="0.33"/>
<stop offset="1" stop-color="white" stop-opacity="0.1"/>
</linearGradient>
<linearGradient id="paint1_linear_402_294" x1="208.404" y1="11.7279" x2="375.888" y2="246.025" gradientUnits="userSpaceOnUse">
<stop stop-color="white" stop-opacity="0.5"/>
<stop offset="0.442708" stop-color="white" stop-opacity="0"/>
<stop offset="0.635417" stop-color="white" stop-opacity="0"/>
<stop offset="1" stop-color="white" stop-opacity="0.5"/>
</linearGradient>
</defs>
</svg>
